<svg id="svg" version="1.1" xmlns="http://www.w3.org/2000/svg" xmlns:xlink="http://www.w3.org/1999/xlink" width="400" height="400" viewBox="0, 0, 400,400"><g id="svgg"><path id="path0" d="M202.627 46.481 C 201.762 46.918,198.918 48.518,196.308 50.038 C 193.697 51.557,191.468 52.800,191.354 52.800 C 191.240 52.800,190.557 53.250,189.836 53.800 C 189.114 54.350,188.401 54.800,188.250 54.800 C 188.099 54.800,186.351 55.790,184.365 57.000 C 182.379 58.210,180.697 59.200,180.629 59.200 C 180.476 59.200,171.639 64.251,170.800 64.818 C 170.470 65.041,169.885 65.329,169.500 65.458 C 169.115 65.588,168.800 65.831,168.800 66.000 C 168.800 66.169,168.485 66.412,168.100 66.542 C 167.715 66.671,167.047 67.007,166.615 67.288 C 165.484 68.026,163.326 69.292,160.800 70.701 C 158.065 72.226,149.816 77.033,148.200 78.043 C 147.540 78.456,146.730 78.918,146.400 79.071 C 146.070 79.223,144.672 80.035,143.293 80.874 C 141.914 81.713,140.654 82.400,140.493 82.400 C 139.735 82.401,137.150 85.233,136.223 87.080 L 135.188 89.140 135.294 127.270 C 135.392 162.528,135.452 165.490,136.090 166.600 C 136.470 167.260,136.885 168.070,137.014 168.400 C 137.379 169.337,142.514 172.810,144.500 173.463 C 144.885 173.590,145.200 173.835,145.200 174.008 C 145.200 174.180,145.695 174.517,146.300 174.756 C 147.482 175.222,149.675 176.444,150.496 177.094 C 150.773 177.314,152.080 178.088,153.400 178.813 C 154.720 179.538,156.340 180.460,157.000 180.861 C 157.660 181.262,158.560 181.774,159.000 181.999 C 159.440 182.224,160.520 182.862,161.400 183.416 C 162.280 183.970,163.495 184.615,164.100 184.851 C 164.705 185.086,165.200 185.441,165.200 185.639 C 165.200 185.838,165.374 186.000,165.586 186.000 C 165.798 186.000,167.605 186.990,169.600 188.200 C 171.595 189.410,173.314 190.400,173.418 190.400 C 173.523 190.400,175.209 191.390,177.165 192.600 C 179.121 193.810,180.826 194.800,180.953 194.800 C 181.080 194.800,182.169 195.430,183.373 196.200 C 184.577 196.970,185.657 197.600,185.774 197.600 C 185.890 197.600,187.114 198.287,188.493 199.126 C 189.872 199.965,191.270 200.782,191.600 200.942 C 191.930 201.101,192.560 201.449,193.000 201.716 C 193.440 201.982,194.880 202.830,196.200 203.600 C 197.520 204.370,198.960 205.221,199.400 205.491 C 204.919 208.876,207.749 208.830,213.600 205.261 C 214.370 204.791,215.270 204.282,215.600 204.129 C 215.930 203.977,217.328 203.165,218.707 202.326 C 220.086 201.487,221.305 200.800,221.417 200.800 C 221.528 200.800,222.760 200.080,224.153 199.200 C 225.546 198.320,226.877 197.600,227.110 197.600 C 227.343 197.600,227.593 197.456,227.667 197.280 C 227.740 197.104,229.060 196.251,230.600 195.385 C 232.140 194.519,233.760 193.591,234.200 193.322 C 234.640 193.054,235.360 192.652,235.800 192.428 C 236.240 192.205,237.500 191.480,238.600 190.817 C 239.700 190.153,240.869 189.482,241.198 189.325 C 241.527 189.168,243.202 188.167,244.921 187.101 C 246.640 186.035,248.441 184.994,248.923 184.788 C 249.405 184.582,250.520 183.962,251.400 183.410 C 252.280 182.857,253.270 182.287,253.600 182.142 C 253.930 181.997,254.470 181.657,254.800 181.387 C 255.130 181.116,256.480 180.324,257.800 179.627 C 260.660 178.115,261.730 177.485,262.000 177.155 C 262.110 177.020,263.280 176.330,264.600 175.621 C 273.100 171.059,276.206 168.671,276.672 166.342 C 276.799 165.705,277.060 165.086,277.252 164.968 C 277.756 164.656,277.705 88.912,277.200 88.600 C 276.980 88.464,276.800 88.086,276.800 87.760 C 276.800 85.868,273.716 83.254,267.012 79.462 C 265.905 78.837,263.689 77.532,262.086 76.562 C 260.483 75.593,259.092 74.800,258.994 74.800 C 258.896 74.800,257.867 74.195,256.708 73.456 C 255.548 72.716,254.195 71.984,253.700 71.829 C 253.205 71.673,252.800 71.399,252.800 71.220 C 252.800 71.040,252.485 70.792,252.100 70.668 C 251.715 70.544,250.500 69.895,249.400 69.227 C 248.300 68.558,247.130 67.885,246.800 67.731 C 246.470 67.578,245.120 66.799,243.800 66.000 C 242.480 65.201,241.130 64.426,240.800 64.277 C 240.470 64.127,239.846 63.779,239.414 63.503 C 238.242 62.753,234.237 60.378,230.408 58.163 C 228.543 57.083,226.653 55.982,226.208 55.716 C 225.764 55.449,225.131 55.098,224.803 54.936 C 224.475 54.773,221.574 53.081,218.357 51.175 C 208.387 45.267,206.278 44.638,202.627 46.481 M245.503 116.777 C 245.559 132.935,245.453 146.307,245.267 146.493 C 244.891 146.869,213.388 146.964,212.783 146.590 C 212.552 146.447,212.400 141.294,212.400 133.576 L 212.400 120.800 211.300 120.778 C 210.695 120.766,205.250 120.751,199.200 120.746 C 193.150 120.741,187.795 120.577,187.300 120.381 L 186.400 120.026 186.400 103.880 C 186.400 94.999,186.521 87.612,186.669 87.464 C 186.817 87.316,200.092 87.241,216.169 87.297 L 245.400 87.400 245.503 116.777 M206.548 127.300 C 207.098 129.351,206.823 165.883,206.254 166.355 C 205.861 166.681,200.365 166.779,186.554 166.704 L 167.400 166.600 167.296 147.000 C 167.239 136.220,167.278 127.175,167.383 126.900 C 167.533 126.510,171.817 126.400,186.941 126.400 L 206.307 126.400 206.548 127.300 M153.069 256.817 C 152.439 257.313,151.925 258.219,151.763 259.117 C 151.616 259.933,151.360 260.780,151.195 261.000 C 151.030 261.220,150.810 262.030,150.707 262.800 C 150.461 264.636,149.598 268.017,149.153 268.895 C 148.959 269.277,148.801 269.997,148.802 270.495 C 148.803 270.993,148.545 272.210,148.228 273.200 C 146.987 277.075,146.400 279.331,146.400 280.222 C 146.400 280.734,146.220 281.264,146.000 281.400 C 145.780 281.536,145.600 282.066,145.600 282.578 C 145.600 283.089,145.316 284.474,144.969 285.654 C 144.622 286.834,144.180 288.430,143.988 289.200 C 143.796 289.970,143.375 291.590,143.054 292.800 C 142.733 294.010,142.173 296.170,141.809 297.600 C 141.446 299.030,140.992 300.740,140.802 301.400 C 140.611 302.060,140.166 303.860,139.813 305.400 C 139.459 306.940,138.918 309.100,138.609 310.200 C 138.301 311.300,137.866 312.920,137.643 313.800 C 137.420 314.680,136.973 316.390,136.648 317.600 C 136.323 318.810,135.839 320.700,135.573 321.800 C 134.107 327.846,130.712 332.362,125.760 334.850 C 122.225 336.627,122.190 336.759,124.146 340.903 C 126.239 345.334,126.409 345.394,131.060 343.353 C 131.754 343.049,132.531 342.800,132.789 342.800 C 133.561 342.800,138.316 339.233,140.461 337.045 C 144.580 332.842,146.570 328.784,148.724 320.200 C 148.945 319.320,149.413 317.594,149.763 316.365 C 150.113 315.136,150.400 313.681,150.400 313.132 C 150.400 312.583,150.535 311.998,150.700 311.834 C 150.988 311.545,151.656 309.171,152.397 305.800 C 152.591 304.920,153.041 303.120,153.397 301.800 C 154.149 299.019,155.077 295.293,155.591 293.000 C 155.788 292.120,156.244 290.320,156.605 289.000 C 156.965 287.680,157.396 285.970,157.563 285.200 C 157.729 284.430,158.073 283.170,158.326 282.400 C 158.838 280.847,160.381 274.762,160.660 273.200 C 160.818 272.314,161.122 271.169,162.413 266.600 C 162.599 265.940,162.876 264.680,163.028 263.800 C 163.180 262.920,163.462 262.000,163.654 261.756 C 164.303 260.934,164.261 256.810,163.600 256.392 C 162.335 255.591,154.210 255.920,153.069 256.817 M227.760 256.729 C 227.298 257.115,226.324 258.954,225.595 260.815 C 224.867 262.677,224.120 264.371,223.935 264.580 C 223.751 264.789,223.599 265.329,223.598 265.780 C 223.596 266.231,223.326 267.116,222.998 267.746 C 222.669 268.376,222.400 269.209,222.400 269.597 C 222.400 269.985,222.130 270.949,221.800 271.738 C 221.470 272.528,221.200 273.690,221.200 274.320 C 221.200 274.951,221.065 275.601,220.901 275.766 C 220.571 276.096,219.776 280.057,219.288 283.800 C 219.116 285.120,218.834 286.428,218.660 286.707 C 218.307 287.274,217.632 295.284,217.320 302.600 C 217.129 307.093,217.431 310.831,218.454 316.600 C 218.688 317.920,219.023 319.810,219.199 320.800 C 220.146 326.145,220.905 326.800,226.153 326.800 L 229.545 326.800 231.342 324.900 C 234.591 321.464,238.800 316.356,238.800 315.848 C 238.800 315.731,239.522 314.593,240.404 313.318 C 241.286 312.043,242.231 310.664,242.504 310.253 C 242.777 309.842,243.461 308.852,244.024 308.053 C 244.587 307.254,245.178 306.255,245.337 305.833 C 246.069 303.894,247.017 307.054,247.607 313.400 C 247.791 315.380,248.239 318.170,248.602 319.600 C 248.966 321.030,249.384 322.773,249.531 323.473 C 250.089 326.118,251.196 326.801,254.897 326.788 C 261.333 326.764,266.896 321.904,273.884 310.200 C 274.622 308.964,276.358 305.651,277.656 303.000 C 278.303 301.680,278.986 300.317,279.175 299.972 C 279.363 299.626,280.094 297.916,280.800 296.172 C 281.505 294.427,282.346 292.370,282.668 291.600 C 283.798 288.901,283.912 288.582,284.610 286.200 C 284.996 284.880,285.449 283.440,285.615 283.000 C 285.782 282.560,286.214 280.940,286.574 279.400 C 286.935 277.860,287.421 275.998,287.655 275.262 C 288.162 273.662,288.633 270.918,289.414 265.000 C 290.613 255.916,290.668 256.000,283.585 256.000 C 277.860 256.000,277.213 256.440,277.183 260.354 C 277.173 261.589,276.985 263.410,276.766 264.400 C 276.546 265.390,276.208 267.370,276.016 268.800 C 275.823 270.230,275.373 272.660,275.015 274.200 C 274.657 275.740,274.216 277.720,274.035 278.600 C 273.472 281.331,272.720 284.171,272.380 284.851 C 272.201 285.209,271.932 286.156,271.782 286.955 C 271.632 287.755,271.350 288.507,271.155 288.628 C 270.960 288.749,270.800 289.178,270.800 289.581 C 270.800 292.048,263.871 306.838,261.025 310.446 C 260.571 311.022,260.003 311.828,259.762 312.237 C 257.219 316.562,257.246 288.174,259.797 275.800 C 260.160 274.040,260.600 271.790,260.775 270.800 C 261.090 269.014,261.733 266.633,263.042 262.400 C 263.416 261.190,263.740 259.300,263.761 258.200 L 263.800 256.200 258.730 256.088 C 253.277 255.968,251.600 256.605,251.600 258.795 C 251.600 259.212,251.420 259.664,251.200 259.800 C 250.980 259.936,250.800 260.635,250.800 261.352 C 250.800 262.470,250.133 265.065,249.297 267.200 C 249.020 267.906,248.068 271.682,247.733 273.400 C 247.605 274.060,247.363 274.780,247.196 275.000 C 247.029 275.220,246.761 276.030,246.600 276.800 C 246.439 277.570,246.173 278.380,246.009 278.600 C 245.845 278.820,245.587 279.515,245.436 280.144 C 245.190 281.173,244.721 282.344,243.010 286.200 C 242.717 286.860,241.968 288.570,241.344 290.000 C 238.902 295.601,234.436 303.954,232.256 307.000 C 230.995 308.760,229.859 310.522,229.731 310.916 C 228.665 314.194,227.948 304.325,228.793 298.000 C 229.411 293.367,230.385 287.655,230.804 286.200 C 230.993 285.540,231.271 284.143,231.421 283.095 C 231.570 282.047,231.852 281.092,232.046 280.971 C 232.241 280.851,232.400 280.299,232.400 279.744 C 232.400 279.189,232.832 277.444,233.360 275.867 C 233.888 274.290,234.629 271.920,235.007 270.600 C 235.702 268.166,236.528 265.968,237.219 264.705 C 237.429 264.323,237.600 263.825,237.600 263.597 C 237.600 263.369,238.163 262.029,238.850 260.619 C 239.732 258.811,240.024 257.752,239.843 257.027 L 239.585 256.000 234.092 256.013 C 229.454 256.025,228.469 256.136,227.760 256.729 " stroke="none" fill="#3d3d3d" fill-rule="evenodd"></path><path id="path1" d="M0.000 200.000 L 0.000 400.000 200.000 400.000 L 400.000 400.000 400.000 200.000 L 400.000 0.000 200.000 0.000 L 0.000 0.000 0.000 200.000 M212.666 46.852 C 214.390 47.772,215.890 48.633,216.000 48.766 C 216.110 48.899,216.920 49.366,217.800 49.804 C 218.680 50.242,219.940 50.978,220.600 51.441 C 221.260 51.903,222.070 52.397,222.400 52.538 C 222.730 52.679,223.270 52.975,223.600 53.196 C 223.930 53.416,225.550 54.343,227.200 55.255 C 228.850 56.167,230.290 57.027,230.400 57.165 C 230.510 57.303,231.050 57.634,231.600 57.899 C 232.150 58.165,233.320 58.834,234.200 59.387 C 235.080 59.939,236.179 60.559,236.643 60.764 C 237.106 60.969,238.493 61.781,239.723 62.568 C 240.954 63.356,242.057 64.000,242.174 64.000 C 242.290 64.000,243.562 64.720,245.000 65.600 C 246.438 66.480,247.729 67.200,247.869 67.200 C 248.010 67.200,248.681 67.610,249.362 68.111 C 250.043 68.611,251.320 69.376,252.200 69.811 C 253.080 70.245,253.890 70.703,254.000 70.829 C 254.110 70.955,254.470 71.179,254.800 71.327 C 255.130 71.474,255.670 71.771,256.000 71.986 C 257.015 72.647,261.764 75.435,262.400 75.742 C 262.730 75.901,263.360 76.249,263.800 76.516 C 264.240 76.782,265.680 77.610,267.000 78.356 C 273.509 82.032,275.312 83.426,277.144 86.200 L 278.200 87.800 278.200 126.600 C 278.200 162.729,278.152 165.501,277.500 166.860 C 276.667 168.599,273.630 171.686,271.862 172.591 C 271.168 172.947,269.700 173.774,268.600 174.430 C 267.500 175.086,266.240 175.797,265.800 176.010 C 265.360 176.224,264.644 176.624,264.210 176.899 C 261.670 178.509,259.158 180.000,258.984 180.000 C 258.874 180.000,258.023 180.489,257.092 181.087 C 256.161 181.685,254.860 182.472,254.200 182.837 C 253.540 183.201,252.370 183.880,251.600 184.346 C 250.830 184.812,249.930 185.316,249.600 185.467 C 249.270 185.617,247.901 186.429,246.557 187.270 C 245.213 188.112,243.908 188.800,243.657 188.800 C 243.406 188.800,243.200 188.968,243.200 189.173 C 243.200 189.378,242.809 189.670,242.332 189.822 C 241.854 189.973,240.513 190.705,239.351 191.449 C 238.189 192.192,237.143 192.800,237.026 192.800 C 236.910 192.800,235.686 193.487,234.307 194.326 C 232.928 195.165,231.530 195.974,231.200 196.123 C 230.870 196.273,230.251 196.621,229.823 196.897 C 227.729 198.252,224.930 199.890,224.340 200.104 C 223.978 200.236,222.225 201.257,220.445 202.372 C 218.665 203.487,217.113 204.400,216.996 204.400 C 216.880 204.400,216.109 204.826,215.285 205.347 C 210.832 208.157,209.167 208.800,206.336 208.800 C 203.364 208.800,203.253 208.754,195.994 204.566 C 194.120 203.484,191.915 202.244,191.094 201.809 C 190.272 201.374,189.600 200.879,189.600 200.709 C 189.600 200.539,189.394 200.400,189.143 200.400 C 188.892 200.400,187.587 199.712,186.243 198.870 C 184.899 198.029,183.530 197.217,183.200 197.065 C 182.870 196.913,181.700 196.247,180.600 195.583 C 179.500 194.920,178.240 194.195,177.800 193.972 C 177.360 193.748,176.640 193.346,176.200 193.078 C 175.760 192.809,174.230 191.909,172.800 191.078 C 169.851 189.365,169.541 189.181,166.110 187.106 C 164.740 186.278,163.522 185.600,163.403 185.600 C 163.283 185.600,162.055 184.913,160.673 184.074 C 159.291 183.234,157.899 182.422,157.580 182.269 C 157.261 182.116,156.460 181.643,155.800 181.218 C 155.140 180.793,153.663 179.968,152.517 179.384 C 151.371 178.800,150.224 178.070,149.968 177.761 C 149.712 177.453,149.347 177.200,149.158 177.200 C 148.875 177.200,145.343 175.200,142.800 173.600 C 142.470 173.392,141.629 172.933,140.931 172.580 C 138.942 171.574,136.071 168.643,135.206 166.737 C 134.002 164.083,133.969 89.551,135.171 87.000 C 136.329 84.542,139.189 81.854,142.200 80.394 C 142.860 80.073,144.480 79.167,145.800 78.380 C 147.120 77.592,148.470 76.826,148.800 76.677 C 149.130 76.527,149.754 76.179,150.186 75.903 C 153.292 73.916,155.957 72.400,156.343 72.400 C 156.594 72.400,156.800 72.223,156.800 72.008 C 156.800 71.792,157.250 71.502,157.800 71.364 C 158.350 71.226,158.800 70.953,158.800 70.757 C 158.800 70.560,158.977 70.400,159.193 70.400 C 159.409 70.400,160.714 69.710,162.093 68.867 C 164.237 67.555,166.792 66.096,170.200 64.237 C 170.640 63.996,171.090 63.689,171.200 63.554 C 171.310 63.418,172.120 62.919,173.000 62.443 C 175.054 61.334,177.321 60.037,181.800 57.410 C 183.780 56.248,186.300 54.816,187.400 54.227 C 189.752 52.969,190.923 52.280,191.200 51.992 C 192.031 51.129,202.780 45.341,204.068 45.064 C 206.476 44.545,209.533 45.181,212.666 46.852 M187.695 103.697 L 187.800 119.800 200.000 119.906 C 206.710 119.964,212.425 120.094,212.700 120.193 C 213.086 120.333,213.200 123.301,213.200 133.187 L 213.200 146.000 229.207 146.000 L 245.213 146.000 245.107 116.900 L 245.000 87.800 216.295 87.697 L 187.591 87.595 187.695 103.697 M167.600 146.800 L 167.600 166.000 186.800 166.000 L 206.000 166.000 206.000 146.800 L 206.000 127.600 186.800 127.600 L 167.600 127.600 167.600 146.800 M164.643 256.300 C 165.296 257.160,165.333 258.401,164.768 260.554 C 164.531 261.459,164.160 262.920,163.944 263.800 C 163.728 264.680,163.301 266.300,162.995 267.400 C 162.689 268.500,162.345 269.850,162.230 270.400 C 161.860 272.183,160.869 276.200,160.800 276.200 C 160.733 276.200,159.884 279.618,159.212 282.600 C 159.013 283.480,158.556 285.280,158.196 286.600 C 157.836 287.920,157.378 289.777,157.178 290.727 C 156.978 291.676,156.687 292.660,156.531 292.912 C 156.375 293.164,156.108 294.097,155.937 294.985 C 155.291 298.353,154.577 301.157,154.294 301.440 C 154.132 301.601,154.000 302.221,154.000 302.818 C 154.000 303.414,153.730 304.549,153.400 305.338 C 153.070 306.128,152.800 307.309,152.800 307.964 C 152.800 308.618,152.620 309.264,152.400 309.400 C 152.180 309.536,152.000 310.066,152.000 310.578 C 152.000 311.089,151.736 312.384,151.413 313.454 C 150.849 315.325,149.469 320.683,148.800 323.600 C 148.198 326.221,146.466 330.482,145.900 330.733 C 145.735 330.807,145.600 331.125,145.600 331.441 C 145.600 333.043,141.330 337.905,137.371 340.810 C 136.067 341.767,134.940 342.696,134.867 342.875 C 134.793 343.054,134.551 343.200,134.327 343.200 C 134.104 343.200,133.264 343.485,132.460 343.833 C 131.657 344.182,130.409 344.722,129.686 345.033 C 126.540 346.391,125.535 345.813,123.427 341.430 C 121.241 336.884,121.436 335.955,124.937 334.233 C 130.907 331.298,134.526 325.798,135.487 318.200 C 135.599 317.320,135.834 316.420,136.009 316.200 C 136.185 315.980,136.447 315.080,136.593 314.200 C 136.739 313.320,137.001 312.240,137.176 311.800 C 137.536 310.892,138.350 307.896,138.643 306.400 C 138.826 305.464,139.603 302.591,140.437 299.772 C 140.637 299.096,140.800 298.220,140.800 297.825 C 140.800 297.430,141.061 296.273,141.380 295.254 C 141.699 294.234,142.141 292.680,142.361 291.800 C 142.911 289.605,143.928 285.810,144.622 283.365 C 144.940 282.246,145.200 280.951,145.200 280.488 C 145.200 280.026,145.380 279.536,145.600 279.400 C 145.820 279.264,146.000 278.635,146.000 278.002 C 146.000 277.370,146.203 276.345,146.451 275.726 C 146.894 274.620,147.108 273.803,148.001 269.800 C 148.246 268.700,148.596 267.440,148.779 267.000 C 148.962 266.560,149.422 264.760,149.801 263.000 C 150.180 261.240,150.650 259.487,150.845 259.105 C 151.040 258.723,151.200 258.178,151.200 257.894 C 151.200 255.586,163.035 254.182,164.643 256.300 M240.769 256.342 C 241.147 257.049,240.270 260.263,239.485 261.048 C 239.328 261.205,239.200 261.568,239.200 261.856 C 239.200 262.143,238.774 263.328,238.254 264.489 C 236.955 267.385,236.175 269.474,235.596 271.600 C 235.327 272.590,234.933 273.940,234.722 274.600 C 233.150 279.497,231.494 286.289,230.966 290.000 C 230.856 290.770,230.515 292.840,230.208 294.600 C 229.517 298.559,229.063 307.619,229.522 308.311 C 229.991 309.019,233.416 304.098,236.000 299.000 C 237.116 296.800,238.181 294.730,238.368 294.400 C 238.555 294.070,238.892 293.350,239.119 292.800 C 239.345 292.250,240.102 290.540,240.800 289.000 C 241.498 287.460,242.253 285.750,242.477 285.200 C 243.181 283.472,243.861 281.853,244.542 280.286 C 244.904 279.454,245.200 278.430,245.200 278.010 C 245.200 277.590,245.380 277.136,245.600 277.000 C 245.820 276.864,246.001 276.358,246.002 275.876 C 246.004 275.394,246.274 274.484,246.602 273.854 C 246.931 273.224,247.200 272.110,247.200 271.378 C 247.200 270.646,247.359 269.949,247.554 269.829 C 247.748 269.708,248.029 268.798,248.178 267.805 C 248.327 266.812,248.594 266.000,248.770 266.000 C 248.947 266.000,249.213 265.235,249.361 264.300 C 249.992 260.317,250.671 257.971,251.526 256.814 L 252.439 255.579 258.516 255.690 L 264.593 255.800 264.814 257.000 C 265.049 258.275,264.882 259.129,263.409 264.200 C 262.257 268.168,261.366 272.112,260.156 278.600 C 259.407 282.622,258.737 300.794,259.116 306.827 L 259.400 311.348 260.589 309.574 C 262.759 306.335,267.200 297.752,267.200 296.796 C 267.200 296.572,267.371 296.077,267.581 295.695 C 268.519 293.983,271.957 283.707,272.565 280.800 C 272.680 280.250,272.982 278.810,273.236 277.600 C 273.490 276.390,273.833 275.040,273.998 274.600 C 274.525 273.196,275.264 269.101,275.586 265.800 C 275.758 264.040,276.004 262.330,276.133 262.000 C 276.262 261.670,276.451 260.356,276.551 259.081 C 276.829 255.566,276.758 255.600,283.800 255.600 C 288.657 255.600,290.001 255.719,290.386 256.183 C 291.036 256.966,290.689 264.734,289.814 269.000 C 289.453 270.760,289.017 273.010,288.845 274.000 C 288.673 274.990,288.308 276.610,288.034 277.600 C 286.981 281.407,286.277 283.831,286.000 284.600 C 285.842 285.040,285.396 286.480,285.010 287.800 C 284.623 289.120,284.160 290.560,283.981 291.000 C 283.475 292.238,282.371 294.825,281.547 296.700 C 278.753 303.060,278.036 304.546,276.004 308.200 C 275.270 309.520,274.324 311.230,273.901 312.000 C 273.479 312.770,272.608 314.064,271.967 314.877 C 271.325 315.689,270.800 316.537,270.800 316.761 C 270.800 317.597,263.549 324.718,261.257 326.133 C 258.937 327.565,258.784 327.600,254.902 327.600 C 249.981 327.600,248.969 326.669,248.181 321.410 C 248.031 320.409,247.748 319.492,247.554 319.371 C 247.359 319.251,247.196 318.578,247.192 317.876 C 247.188 317.174,246.924 315.160,246.606 313.400 C 246.288 311.640,246.010 309.300,245.989 308.200 C 245.957 306.599,245.878 306.378,245.590 307.093 C 245.392 307.584,243.874 309.962,242.215 312.378 C 240.557 314.793,239.200 316.919,239.200 317.102 C 239.200 317.285,238.525 318.160,237.700 319.046 C 236.875 319.932,235.717 321.274,235.127 322.028 C 234.537 322.783,233.170 324.345,232.089 325.500 L 230.125 327.600 225.823 327.600 C 221.098 327.600,219.513 326.777,218.990 324.053 C 218.878 323.474,218.579 322.190,218.324 321.200 C 218.070 320.210,217.784 318.500,217.690 317.400 C 217.595 316.300,217.375 315.220,217.201 315.000 C 216.631 314.281,216.369 303.130,216.787 297.400 C 217.364 289.484,217.854 284.960,218.193 284.411 C 218.354 284.151,218.644 282.827,218.838 281.469 C 219.033 280.111,219.473 277.740,219.816 276.200 C 220.159 274.660,220.604 272.644,220.804 271.720 C 221.005 270.796,221.333 269.716,221.535 269.320 C 222.032 268.345,222.800 265.862,222.800 265.232 C 222.800 264.951,223.089 264.064,223.443 263.260 C 223.797 262.457,224.318 261.260,224.601 260.600 C 226.924 255.183,226.152 255.600,233.848 255.600 C 239.794 255.600,240.407 255.666,240.769 256.342 " stroke="none" fill="#fbfbfb" fill-rule="evenodd"></path><path id="path2" d="M205.500 45.482 C 205.995 45.578,206.805 45.578,207.300 45.482 C 207.795 45.387,207.390 45.309,206.400 45.309 C 205.410 45.309,205.005 45.387,205.500 45.482 M202.000 46.338 C 200.769 46.959,195.670 49.933,192.200 52.053 C 191.540 52.457,191.126 52.790,191.281 52.793 C 191.435 52.797,193.772 51.513,196.475 49.940 C 199.177 48.368,201.976 46.835,202.694 46.535 C 203.412 46.235,204.000 45.902,204.000 45.795 C 204.000 45.458,203.446 45.609,202.000 46.338 M211.200 47.140 C 212.850 47.985,216.521 50.058,219.357 51.748 C 222.193 53.437,224.586 54.747,224.675 54.658 C 224.764 54.570,223.343 53.636,221.518 52.583 C 219.693 51.531,216.760 49.820,215.000 48.783 C 210.961 46.402,209.377 45.600,208.720 45.602 C 208.434 45.603,209.550 46.295,211.200 47.140 M189.497 53.566 C 188.125 54.445,187.760 54.801,188.233 54.798 C 188.435 54.797,189.140 54.353,189.800 53.812 C 191.199 52.666,191.067 52.559,189.497 53.566 M179.118 59.529 C 174.783 62.081,171.296 64.229,171.368 64.302 C 171.441 64.374,173.526 63.256,176.002 61.817 C 178.478 60.377,180.558 59.200,180.625 59.200 C 180.788 59.200,187.282 55.252,187.534 54.999 C 188.288 54.245,185.989 55.483,179.118 59.529 M225.549 55.335 C 225.851 55.701,226.250 56.000,226.435 56.000 C 226.620 56.000,228.083 56.779,229.686 57.731 C 232.139 59.189,235.362 61.101,239.383 63.484 C 239.832 63.751,240.470 64.099,240.800 64.258 C 241.130 64.418,242.480 65.201,243.800 66.000 C 245.120 66.799,246.470 67.578,246.800 67.731 C 247.130 67.885,248.300 68.558,249.400 69.227 C 250.500 69.895,251.715 70.544,252.100 70.668 C 252.485 70.792,252.800 71.040,252.800 71.220 C 252.800 71.399,253.205 71.673,253.700 71.829 C 254.195 71.984,255.565 72.727,256.744 73.479 C 257.923 74.231,258.963 74.771,259.055 74.679 C 259.205 74.528,256.664 72.971,248.800 68.394 C 224.395 54.189,224.785 54.408,225.549 55.335 M161.400 69.840 C 157.440 72.161,154.020 74.248,153.800 74.479 C 153.274 75.030,154.809 74.228,157.907 72.333 C 159.286 71.490,160.498 70.800,160.600 70.800 C 160.778 70.800,165.545 68.014,166.800 67.177 C 167.130 66.957,167.715 66.671,168.100 66.542 C 168.645 66.359,169.158 65.562,168.700 65.611 C 168.645 65.616,165.360 67.520,161.400 69.840 M150.286 76.287 C 149.014 77.067,148.048 77.781,148.139 77.873 C 148.231 77.964,149.452 77.312,150.853 76.423 C 152.254 75.535,153.220 74.821,153.000 74.838 C 152.780 74.855,151.559 75.507,150.286 76.287 M259.820 75.138 C 260.607 75.838,266.501 79.233,266.657 79.076 C 266.747 78.986,265.272 77.987,263.380 76.856 C 260.176 74.941,258.915 74.333,259.820 75.138 M143.687 80.155 C 138.559 83.099,137.039 84.417,135.832 86.968 L 134.800 89.150 134.800 126.704 C 134.800 166.502,134.818 166.921,136.629 168.424 C 137.355 169.026,137.374 168.465,136.657 167.631 C 135.241 165.986,135.200 164.833,135.200 126.698 L 135.200 89.116 136.229 87.068 C 137.152 85.230,139.737 82.401,140.493 82.400 C 140.654 82.400,141.962 81.680,143.400 80.800 C 144.838 79.920,146.169 79.200,146.358 79.200 C 146.547 79.200,146.926 78.930,147.200 78.600 C 147.909 77.746,147.803 77.792,143.687 80.155 M267.200 79.308 C 267.200 79.409,268.775 80.452,270.700 81.626 C 272.625 82.800,274.404 84.039,274.654 84.380 C 275.848 86.012,276.775 86.958,276.787 86.558 C 276.806 85.914,273.481 82.599,272.144 81.929 C 271.515 81.614,270.145 80.854,269.100 80.240 C 268.055 79.626,267.200 79.207,267.200 79.308 M186.667 87.467 C 186.520 87.613,186.400 94.999,186.400 103.880 L 186.400 120.026 187.300 120.367 C 188.238 120.723,207.519 120.986,207.171 120.638 C 207.062 120.529,202.749 120.412,197.587 120.379 C 192.424 120.345,187.885 120.150,187.500 119.945 C 186.593 119.462,186.398 87.829,187.300 87.465 C 187.579 87.352,187.609 87.249,187.367 87.232 C 187.128 87.214,186.813 87.320,186.667 87.467 M245.105 116.838 L 245.210 146.400 229.011 146.400 L 212.811 146.400 212.706 133.500 L 212.600 120.600 211.495 120.551 C 210.483 120.507,210.475 120.517,211.395 120.678 L 212.400 120.853 212.400 133.603 C 212.400 141.303,212.552 146.447,212.783 146.590 C 213.286 146.901,244.711 146.902,245.214 146.592 C 245.673 146.307,245.759 87.745,245.300 87.462 C 245.135 87.360,245.047 100.579,245.105 116.838 M277.792 127.000 C 277.792 147.680,277.841 156.081,277.900 145.670 C 277.959 135.258,277.959 118.338,277.900 108.070 C 277.840 97.801,277.792 106.320,277.792 127.000 M167.384 126.827 C 167.239 127.061,167.228 127.361,167.360 127.493 C 167.492 127.625,167.600 127.523,167.600 127.267 C 167.600 126.918,172.436 126.800,186.792 126.800 L 205.985 126.800 206.203 127.700 C 206.324 128.195,206.372 137.060,206.311 147.400 L 206.200 166.200 186.738 166.200 C 176.034 166.200,167.360 166.335,167.462 166.500 C 167.795 167.040,205.776 166.864,206.320 166.320 C 206.828 165.812,207.042 129.145,206.548 127.300 L 206.307 126.400 186.977 126.400 C 173.718 126.400,167.564 126.534,167.384 126.827 M276.984 165.443 C 276.452 167.159,275.375 168.917,274.418 169.631 C 273.858 170.049,273.185 170.571,272.921 170.791 C 272.658 171.012,271.264 171.840,269.823 172.632 C 267.308 174.014,266.331 174.800,267.127 174.800 C 267.333 174.800,267.726 174.530,268.000 174.200 C 268.274 173.870,268.662 173.600,268.862 173.600 C 271.247 173.600,278.624 166.090,277.421 164.887 C 277.310 164.776,277.113 165.026,276.984 165.443 M138.800 170.381 C 139.958 171.419,144.300 174.140,145.793 174.764 C 146.413 175.024,145.056 173.847,144.185 173.371 C 143.753 173.134,142.770 172.594,142.000 172.171 C 141.230 171.747,139.880 170.889,139.000 170.264 L 137.400 169.128 138.800 170.381 M146.400 174.945 C 146.400 175.025,148.155 176.135,150.300 177.412 C 152.445 178.688,155.058 180.243,156.106 180.866 C 157.154 181.490,158.110 182.000,158.230 182.000 C 158.720 182.000,157.912 181.214,156.892 180.700 C 154.423 179.454,150.959 177.462,150.369 176.949 C 150.021 176.647,149.571 176.396,149.369 176.391 C 149.166 176.386,148.550 176.030,148.000 175.600 C 147.073 174.875,146.400 174.599,146.400 174.945 M264.200 175.808 C 263.320 176.320,262.410 176.888,262.178 177.070 C 261.476 177.619,260.319 178.295,257.800 179.628 C 255.060 181.078,254.293 181.626,254.588 181.921 C 254.702 182.035,255.111 181.850,255.498 181.509 C 255.884 181.168,257.100 180.407,258.200 179.817 C 259.300 179.227,260.740 178.406,261.400 177.994 C 262.060 177.581,263.378 176.835,264.329 176.336 C 265.968 175.477,266.831 174.755,266.124 174.838 C 265.946 174.858,265.080 175.295,264.200 175.808 M159.559 182.721 C 160.462 183.360,163.236 184.992,166.400 186.745 C 167.170 187.171,170.562 189.158,173.938 191.160 C 177.314 193.162,180.194 194.796,180.338 194.792 C 180.695 194.780,176.347 192.025,173.400 190.394 C 172.080 189.664,169.872 188.377,168.493 187.533 C 167.114 186.690,165.809 186.000,165.593 186.000 C 165.377 186.000,165.200 185.838,165.200 185.639 C 165.200 185.441,164.705 185.083,164.100 184.844 C 162.748 184.311,160.418 182.978,159.856 182.416 C 159.627 182.187,159.251 182.009,159.020 182.021 C 158.789 182.033,159.032 182.348,159.559 182.721 M251.030 183.551 C 250.911 183.745,250.135 184.223,249.306 184.614 C 248.478 185.005,246.391 186.196,244.668 187.262 C 242.946 188.328,241.393 189.200,241.217 189.200 C 241.042 189.200,240.651 189.499,240.349 189.865 C 239.684 190.672,240.379 190.335,244.200 188.000 C 245.520 187.193,247.680 185.941,249.000 185.218 C 251.655 183.762,252.409 183.200,251.704 183.200 C 251.453 183.200,251.149 183.358,251.030 183.551 M238.653 190.714 C 238.546 190.887,237.620 191.472,236.595 192.014 C 235.570 192.557,234.432 193.182,234.066 193.405 C 233.700 193.628,232.140 194.519,230.600 195.385 C 229.060 196.251,227.740 197.104,227.667 197.280 C 227.593 197.456,227.343 197.600,227.110 197.600 C 226.877 197.600,225.546 198.320,224.153 199.200 C 222.760 200.080,221.528 200.800,221.417 200.800 C 221.305 200.800,220.086 201.487,218.707 202.326 C 217.328 203.165,215.930 203.982,215.600 204.142 C 215.270 204.301,214.640 204.655,214.200 204.928 C 213.760 205.201,212.798 205.747,212.063 206.142 C 211.327 206.536,210.811 206.944,210.915 207.049 C 211.079 207.212,218.271 203.266,219.400 202.394 C 219.620 202.224,220.430 201.737,221.200 201.312 C 222.710 200.478,227.634 197.656,228.729 196.996 C 229.098 196.774,231.200 195.566,233.400 194.311 C 238.190 191.578,239.967 190.406,239.324 190.403 C 239.062 190.401,238.760 190.542,238.653 190.714 M180.800 194.959 C 180.800 195.221,199.954 206.363,202.761 207.735 C 204.556 208.611,208.705 208.611,209.800 207.733 L 210.600 207.092 209.800 207.422 C 207.006 208.573,203.306 207.886,199.400 205.491 C 198.960 205.221,197.520 204.370,196.200 203.600 C 194.880 202.830,193.440 201.982,193.000 201.716 C 192.560 201.449,191.930 201.101,191.600 200.942 C 191.270 200.782,189.872 199.965,188.493 199.126 C 187.114 198.287,185.890 197.600,185.774 197.600 C 185.657 197.600,184.577 196.970,183.373 196.200 C 181.252 194.843,180.800 194.625,180.800 194.959 M152.172 256.987 C 151.816 257.530,151.618 258.205,151.731 258.487 C 151.865 258.820,151.948 258.765,151.968 258.329 C 151.986 257.960,152.474 257.285,153.054 256.829 C 153.808 256.236,153.924 256.000,153.463 256.000 C 153.109 256.000,152.527 256.444,152.172 256.987 M163.600 256.392 C 164.023 256.659,164.184 257.396,164.146 258.886 L 164.092 261.000 164.462 259.400 C 164.864 257.665,164.395 255.995,163.509 256.006 C 163.159 256.010,163.188 256.131,163.600 256.392 M227.125 256.700 C 226.154 257.836,222.215 267.949,222.596 268.329 C 222.837 268.570,223.600 266.537,223.600 265.654 C 223.600 265.272,223.751 264.789,223.935 264.580 C 224.120 264.371,224.867 262.677,225.595 260.815 C 226.324 258.954,227.298 257.115,227.760 256.729 C 228.222 256.343,228.403 256.021,228.162 256.013 C 227.921 256.006,227.455 256.315,227.125 256.700 M252.313 256.700 C 251.087 258.106,250.273 260.373,251.200 259.800 C 251.420 259.664,251.600 259.212,251.600 258.795 C 251.600 258.378,252.058 257.578,252.618 257.018 C 253.178 256.458,253.476 256.000,253.280 256.000 C 253.084 256.000,252.649 256.315,252.313 256.700 M263.769 258.138 C 263.752 259.272,263.422 261.190,263.036 262.400 C 262.650 263.610,262.254 265.050,262.157 265.600 C 262.060 266.150,262.524 264.980,263.187 263.000 C 264.344 259.549,264.736 256.655,264.100 256.262 C 263.935 256.160,263.786 257.004,263.769 258.138 M277.611 256.587 C 277.343 256.909,277.186 257.342,277.262 257.550 C 277.338 257.757,277.723 257.493,278.119 256.963 C 278.885 255.936,278.431 255.599,277.611 256.587 M288.926 256.446 C 289.325 256.678,289.808 257.258,290.000 257.734 C 290.339 258.574,290.350 258.575,290.375 257.780 C 290.405 256.810,289.688 255.995,288.820 256.012 C 288.323 256.022,288.344 256.108,288.926 256.446 M238.653 260.997 C 238.074 262.221,237.600 263.369,237.600 263.549 C 237.600 263.874,236.698 265.952,235.974 267.295 C 235.768 267.677,235.606 268.307,235.613 268.695 C 235.620 269.083,236.178 268.050,236.854 266.400 C 237.530 264.750,238.522 262.433,239.059 261.251 C 239.596 260.069,239.962 259.028,239.871 258.938 C 239.781 258.847,239.232 259.774,238.653 260.997 M276.647 261.500 C 276.499 262.985,276.290 264.830,276.183 265.600 C 276.006 266.871,276.027 266.909,276.413 266.013 C 276.861 264.975,277.463 258.800,277.117 258.800 C 277.007 258.800,276.795 260.015,276.647 261.500 M289.624 263.528 C 289.341 266.231,289.191 268.524,289.290 268.623 C 289.554 268.888,290.547 259.840,290.326 259.177 C 290.222 258.867,289.907 260.825,289.624 263.528 M151.088 259.733 C 150.642 260.866,150.715 261.445,151.238 260.922 C 151.478 260.682,151.608 260.151,151.526 259.742 C 151.382 259.026,151.366 259.026,151.088 259.733 M250.305 261.800 C 249.555 265.948,249.558 265.881,250.210 264.200 C 250.552 263.320,250.778 262.060,250.713 261.400 C 250.603 260.282,250.575 260.309,250.305 261.800 M150.071 263.785 C 149.780 265.044,149.620 266.153,149.716 266.249 C 149.993 266.527,150.891 262.968,150.739 262.196 C 150.662 261.810,150.362 262.526,150.071 263.785 M163.492 261.842 C 163.331 262.002,163.205 262.508,163.212 262.967 C 163.223 263.736,163.256 263.745,163.640 263.085 C 164.088 262.316,163.973 261.360,163.492 261.842 M162.709 265.000 C 161.997 268.276,161.980 268.624,162.609 267.000 C 162.950 266.120,163.170 265.040,163.099 264.600 C 163.002 263.997,162.906 264.095,162.709 265.000 M149.254 267.267 C 149.225 267.634,149.084 268.264,148.941 268.667 C 148.741 269.233,148.795 269.296,149.175 268.946 C 149.446 268.697,149.587 268.067,149.488 267.546 C 149.390 267.026,149.284 266.900,149.254 267.267 M261.264 268.344 C 261.009 269.196,260.821 270.412,260.846 271.046 C 260.878 271.824,260.947 271.940,261.059 271.400 C 261.151 270.960,261.425 269.830,261.668 268.889 C 262.227 266.725,261.887 266.266,261.264 268.344 M248.103 270.028 C 247.830 271.189,247.683 272.216,247.777 272.310 C 248.032 272.566,248.866 269.234,248.724 268.528 C 248.656 268.191,248.376 268.866,248.103 270.028 M275.488 269.600 C 275.096 271.984,274.787 274.811,275.029 273.800 C 275.134 273.360,275.411 272.365,275.645 271.588 C 275.879 270.811,276.006 269.641,275.927 268.988 C 275.802 267.951,275.746 268.028,275.488 269.600 M221.900 269.800 C 221.745 270.460,221.515 271.450,221.388 272.000 C 221.233 272.668,221.368 272.540,221.795 271.615 C 222.146 270.853,222.376 269.863,222.307 269.415 C 222.208 268.781,222.118 268.867,221.900 269.800 M161.277 270.538 C 161.015 271.264,160.814 272.294,160.832 272.828 C 160.849 273.363,160.917 273.620,160.983 273.400 C 161.049 273.180,161.334 272.234,161.616 271.298 C 162.229 269.265,161.957 268.657,161.277 270.538 M288.673 269.753 C 288.523 270.145,288.416 270.946,288.436 271.533 C 288.470 272.528,288.498 272.509,288.857 271.263 C 289.273 269.819,289.123 268.582,288.673 269.753 M148.103 271.610 C 147.830 272.781,147.677 273.810,147.763 273.896 C 148.053 274.186,148.859 271.224,148.729 270.348 C 148.649 269.812,148.410 270.294,148.103 271.610 M235.000 270.400 C 234.850 270.873,234.817 271.350,234.927 271.460 C 235.037 271.570,235.250 271.273,235.400 270.800 C 235.550 270.327,235.583 269.850,235.473 269.740 C 235.363 269.630,235.150 269.927,235.000 270.400 M233.492 275.512 C 232.883 277.431,232.399 279.270,232.416 279.600 C 232.434 279.930,232.978 278.580,233.626 276.600 C 234.274 274.620,234.758 272.781,234.702 272.512 C 234.646 272.244,234.102 273.594,233.492 275.512 M260.273 272.953 C 260.123 273.345,260.011 273.966,260.025 274.333 C 260.042 274.775,260.181 274.674,260.437 274.034 C 260.649 273.503,260.761 272.882,260.685 272.654 C 260.609 272.427,260.424 272.561,260.273 272.953 M220.455 275.220 C 220.156 276.441,220.000 277.791,220.109 278.220 C 220.226 278.681,220.326 278.419,220.354 277.580 C 220.379 276.799,220.594 275.966,220.831 275.729 C 221.068 275.492,221.203 274.781,221.131 274.149 C 221.023 273.201,220.905 273.388,220.455 275.220 M246.630 275.400 C 246.218 276.720,245.786 278.055,245.672 278.366 C 245.551 278.696,245.640 278.823,245.887 278.670 C 246.119 278.526,246.436 277.732,246.590 276.904 C 246.745 276.077,247.050 275.184,247.269 274.919 C 247.487 274.655,247.602 274.115,247.524 273.719 C 247.444 273.320,247.047 274.068,246.630 275.400 M287.699 274.790 C 287.424 275.668,287.213 276.705,287.228 277.094 C 287.243 277.482,287.523 276.930,287.850 275.866 C 288.177 274.802,288.389 273.766,288.321 273.562 C 288.253 273.358,287.973 273.911,287.699 274.790 M160.200 274.800 C 160.050 275.273,160.017 275.750,160.127 275.860 C 160.237 275.970,160.450 275.673,160.600 275.200 C 160.750 274.727,160.783 274.250,160.673 274.140 C 160.563 274.030,160.350 274.327,160.200 274.800 M146.900 276.139 C 146.217 278.697,146.304 279.384,147.043 277.273 C 147.376 276.323,147.592 275.258,147.524 274.907 C 147.456 274.555,147.175 275.110,146.900 276.139 M274.288 275.333 C 273.810 276.549,273.924 277.573,274.439 276.687 C 274.667 276.296,274.791 275.666,274.715 275.287 C 274.588 274.660,274.551 274.664,274.288 275.333 M259.278 278.335 C 259.015 279.607,258.825 281.357,258.854 282.224 C 258.887 283.167,258.967 283.399,259.053 282.800 C 259.132 282.250,259.406 280.584,259.663 279.098 C 260.238 275.764,259.934 275.160,259.278 278.335 M159.300 278.539 C 158.617 281.097,158.704 281.784,159.443 279.673 C 159.776 278.723,159.992 277.658,159.924 277.307 C 159.856 276.955,159.575 277.510,159.300 278.539 M273.271 279.785 C 272.980 281.044,272.820 282.153,272.916 282.249 C 273.193 282.527,274.091 278.968,273.939 278.196 C 273.862 277.810,273.562 278.526,273.271 279.785 M286.400 280.000 C 286.130 281.124,285.987 282.120,286.081 282.214 C 286.175 282.309,286.485 281.478,286.769 280.369 C 287.053 279.260,287.197 278.264,287.088 278.155 C 286.979 278.046,286.670 278.876,286.400 280.000 M145.862 280.147 C 145.697 280.778,145.656 281.389,145.771 281.504 C 146.093 281.827,146.487 280.538,146.315 279.723 C 146.203 279.190,146.084 279.301,145.862 280.147 M219.400 280.400 C 219.248 281.091,219.214 281.747,219.324 281.857 C 219.434 281.967,219.648 281.491,219.800 280.800 C 219.952 280.109,219.986 279.453,219.876 279.343 C 219.766 279.233,219.552 279.709,219.400 280.400 M243.902 282.875 C 243.078 284.889,242.486 286.620,242.587 286.720 C 242.688 286.821,242.982 286.385,243.242 285.752 C 243.501 285.118,244.039 283.855,244.438 282.944 C 245.192 281.221,245.791 279.195,245.543 279.207 C 245.465 279.211,244.726 280.861,243.902 282.875 M231.867 281.067 C 231.720 281.213,231.611 281.708,231.625 282.167 C 231.649 282.933,231.682 282.923,232.034 282.042 C 232.426 281.063,232.344 280.589,231.867 281.067 M144.903 284.028 C 144.630 285.189,144.483 286.216,144.577 286.310 C 144.832 286.566,145.666 283.234,145.524 282.528 C 145.456 282.191,145.176 282.866,144.903 284.028 M157.996 283.661 C 157.743 284.617,157.342 286.076,157.104 286.902 C 156.865 287.728,156.765 288.498,156.880 288.613 C 156.995 288.729,157.303 287.963,157.564 286.911 C 157.825 285.860,158.227 284.402,158.456 283.670 C 158.686 282.939,158.779 282.246,158.664 282.131 C 158.549 282.016,158.249 282.705,157.996 283.661 M218.445 285.711 C 218.139 287.422,218.004 288.937,218.145 289.078 C 218.285 289.218,218.400 288.841,218.400 288.240 C 218.400 287.639,218.590 286.792,218.823 286.357 C 219.056 285.922,219.191 284.899,219.123 284.083 C 219.022 282.862,218.902 283.149,218.445 285.711 M271.806 285.238 C 270.698 288.813,270.675 288.924,271.116 288.652 C 271.332 288.518,271.636 287.732,271.790 286.904 C 271.945 286.077,272.249 285.185,272.466 284.922 C 272.684 284.659,272.803 284.046,272.731 283.560 C 272.644 282.973,272.333 283.537,271.806 285.238 M285.467 283.067 C 285.320 283.213,285.211 283.708,285.225 284.167 C 285.249 284.933,285.282 284.923,285.634 284.042 C 286.026 283.063,285.944 282.589,285.467 283.067 M231.083 284.500 C 230.422 288.009,230.391 289.017,231.014 286.807 C 231.353 285.601,231.571 284.251,231.498 283.807 C 231.413 283.289,231.264 283.537,231.083 284.500 M258.281 288.400 C 257.244 302.086,257.897 313.653,259.644 312.573 C 259.895 312.418,259.832 312.149,259.478 311.862 C 258.392 310.981,257.925 303.255,258.427 294.447 C 258.878 286.519,258.768 281.962,258.281 288.400 M284.491 286.500 C 284.221 287.246,284.013 288.114,284.028 288.428 C 284.044 288.743,284.317 288.289,284.635 287.420 C 284.953 286.551,285.161 285.683,285.097 285.492 C 285.033 285.300,284.760 285.754,284.491 286.500 M143.284 290.229 C 142.792 292.151,142.470 293.804,142.569 293.902 C 142.667 294.000,142.942 293.298,143.180 292.340 C 143.418 291.383,143.812 289.946,144.055 289.146 C 144.298 288.347,144.426 287.477,144.338 287.213 C 144.250 286.949,143.776 288.306,143.284 290.229 M241.044 289.644 C 240.433 290.976,240.007 292.140,240.097 292.231 C 240.188 292.321,240.764 291.307,241.378 289.978 C 241.992 288.648,242.418 287.484,242.325 287.392 C 242.232 287.299,241.656 288.312,241.044 289.644 M156.100 290.767 C 155.393 293.058,155.513 294.156,156.243 292.073 C 156.576 291.123,156.792 290.076,156.724 289.747 C 156.656 289.417,156.375 289.876,156.100 290.767 M270.418 289.600 C 270.394 289.930,269.759 291.815,269.008 293.788 C 268.258 295.762,267.705 297.439,267.781 297.514 C 268.058 297.791,270.867 290.005,270.669 289.511 C 270.522 289.146,270.450 289.171,270.418 289.600 M283.203 290.245 C 282.972 290.880,282.577 291.805,282.324 292.299 C 282.072 292.794,281.960 293.293,282.075 293.409 C 282.191 293.524,282.673 292.686,283.147 291.547 C 283.620 290.407,283.921 289.388,283.815 289.282 C 283.709 289.176,283.434 289.609,283.203 290.245 M229.617 292.200 C 229.340 293.740,229.198 295.450,229.302 296.000 C 229.441 296.736,229.505 296.599,229.546 295.477 C 229.575 294.640,229.799 293.165,230.041 292.201 C 230.284 291.237,230.401 290.212,230.302 289.924 C 230.202 289.636,229.894 290.660,229.617 292.200 M217.457 294.528 C 217.274 296.469,217.216 298.149,217.329 298.262 C 217.642 298.575,218.082 294.411,217.927 292.600 C 217.831 291.474,217.692 292.046,217.457 294.528 M280.853 296.053 C 280.380 297.193,280.058 298.192,280.139 298.272 C 280.220 298.353,280.673 297.486,281.147 296.347 C 281.620 295.207,281.942 294.208,281.861 294.128 C 281.780 294.047,281.327 294.914,280.853 296.053 M141.909 295.400 C 141.197 298.676,141.180 299.024,141.809 297.400 C 142.150 296.520,142.370 295.440,142.299 295.000 C 142.202 294.397,142.106 294.495,141.909 295.400 M155.042 295.070 C 154.790 295.867,154.162 298.699,153.815 300.600 C 153.516 302.239,154.536 299.233,155.157 296.646 C 155.607 294.770,155.519 293.561,155.042 295.070 M236.408 299.281 C 234.207 303.547,231.578 307.717,229.915 309.576 C 229.632 309.893,229.263 310.433,229.096 310.776 C 228.929 311.119,228.855 308.160,228.933 304.200 C 229.025 299.509,228.953 297.551,228.726 298.581 C 227.850 302.568,228.770 313.869,229.731 310.916 C 229.859 310.522,230.967 308.798,232.191 307.084 C 234.404 303.988,239.423 294.889,239.097 294.564 C 239.004 294.471,237.794 296.593,236.408 299.281 M266.885 298.973 C 266.215 300.444,266.278 300.752,267.030 299.679 C 267.376 299.184,267.595 298.584,267.515 298.344 C 267.435 298.105,267.152 298.388,266.885 298.973 M279.004 300.286 C 277.885 302.706,276.585 305.279,275.639 306.947 C 275.156 307.798,274.848 308.581,274.954 308.687 C 275.059 308.793,275.649 307.917,276.265 306.740 C 278.180 303.076,280.015 299.082,279.856 298.923 C 279.773 298.840,279.390 299.453,279.004 300.286 M140.500 300.939 C 139.817 303.497,139.904 304.184,140.643 302.073 C 140.976 301.123,141.192 300.058,141.124 299.707 C 141.056 299.355,140.775 299.910,140.500 300.939 M216.951 304.400 C 216.951 306.930,217.016 307.965,217.096 306.700 C 217.175 305.435,217.175 303.365,217.096 302.100 C 217.016 300.835,216.951 301.870,216.951 304.400 M264.598 303.674 C 263.782 305.283,262.414 307.656,261.557 308.946 C 259.805 311.585,259.550 312.216,260.917 310.531 C 262.633 308.416,266.604 301.271,266.257 300.924 C 266.160 300.827,265.414 302.064,264.598 303.674 M152.899 303.590 C 152.624 304.468,152.414 305.595,152.432 306.094 C 152.449 306.592,152.517 306.820,152.583 306.600 C 152.649 306.380,152.927 305.456,153.200 304.546 C 153.474 303.637,153.630 302.690,153.547 302.442 C 153.465 302.195,153.173 302.711,152.899 303.590 M139.400 305.200 C 139.248 305.891,139.214 306.547,139.324 306.657 C 139.434 306.767,139.648 306.291,139.800 305.600 C 139.952 304.909,139.986 304.253,139.876 304.143 C 139.766 304.033,139.552 304.509,139.400 305.200 M245.473 305.460 C 245.035 305.899,245.158 306.409,245.677 306.300 C 246.164 306.198,246.490 307.681,247.149 313.000 C 247.480 315.666,247.499 315.704,247.548 313.800 C 247.644 310.066,246.294 304.639,245.473 305.460 M243.706 308.500 C 243.098 309.435,242.461 310.380,242.290 310.600 C 240.978 312.296,238.793 315.726,238.935 315.868 C 239.072 316.006,243.440 309.778,244.944 307.300 C 245.752 305.968,244.671 307.016,243.706 308.500 M138.500 308.759 C 137.819 310.976,137.897 311.711,138.632 310.015 C 138.963 309.253,139.181 308.292,139.117 307.879 C 139.043 307.409,138.814 307.737,138.500 308.759 M151.800 308.000 C 151.650 308.473,151.617 308.950,151.727 309.060 C 151.837 309.170,152.050 308.873,152.200 308.400 C 152.350 307.927,152.383 307.450,152.273 307.340 C 152.163 307.230,151.950 307.527,151.800 308.000 M274.073 309.687 C 273.813 309.947,273.600 310.329,273.600 310.535 C 273.600 310.861,269.712 316.905,268.601 318.305 C 262.840 325.569,253.901 329.246,250.616 325.704 C 250.057 325.101,249.600 324.800,249.600 325.034 C 249.600 327.798,256.855 328.137,261.049 325.570 C 264.115 323.693,268.215 319.690,270.336 316.503 C 274.343 310.480,275.633 308.127,274.073 309.687 M151.246 310.476 C 151.221 311.068,151.020 311.664,150.800 311.800 C 150.580 311.936,150.413 312.622,150.428 313.324 C 150.453 314.489,150.508 314.431,151.050 312.664 C 151.377 311.600,151.566 310.430,151.469 310.064 C 151.369 309.689,151.273 309.868,151.246 310.476 M217.295 311.200 C 217.295 312.190,217.432 313.540,217.600 314.200 C 217.873 315.273,217.905 315.209,217.905 313.600 C 217.905 312.610,217.768 311.260,217.600 310.600 C 217.327 309.527,217.295 309.591,217.295 311.200 M136.884 315.029 C 136.392 316.951,136.070 318.604,136.169 318.702 C 136.267 318.800,136.542 318.098,136.780 317.140 C 137.018 316.183,137.412 314.746,137.655 313.946 C 137.898 313.147,138.026 312.277,137.938 312.013 C 137.850 311.749,137.376 313.106,136.884 315.029 M149.664 316.344 C 149.409 317.196,149.212 318.232,149.226 318.646 C 149.241 319.061,149.514 318.428,149.833 317.240 C 150.501 314.758,150.361 314.018,149.664 316.344 M218.045 316.800 C 218.040 317.350,218.285 318.700,218.591 319.800 C 218.927 321.013,219.150 321.406,219.155 320.800 C 219.160 320.250,218.915 318.900,218.609 317.800 C 218.273 316.587,218.050 316.194,218.045 316.800 M236.880 318.500 C 235.080 320.839,233.982 322.108,231.342 324.900 L 229.545 326.800 226.153 326.800 C 221.854 326.800,220.598 326.221,219.988 323.957 C 219.746 323.056,219.451 322.415,219.334 322.533 C 218.858 323.009,220.133 325.640,221.211 326.408 C 222.218 327.125,222.861 327.215,226.259 327.115 L 230.153 327.000 234.076 322.474 C 237.627 318.378,239.120 316.400,238.662 316.400 C 238.571 316.400,237.769 317.345,236.880 318.500 M247.753 317.600 C 248.290 320.259,248.798 321.515,248.578 319.638 C 248.464 318.670,248.186 317.590,247.961 317.238 C 247.636 316.732,247.593 316.807,247.753 317.600 M135.140 321.659 C 134.791 323.057,134.362 324.545,134.185 324.966 C 133.981 325.453,134.011 325.640,134.268 325.481 C 134.754 325.181,136.144 320.231,135.926 319.578 C 135.842 319.325,135.488 320.262,135.140 321.659 M148.673 320.153 C 148.523 320.545,148.411 321.166,148.425 321.533 C 148.442 321.975,148.581 321.874,148.837 321.234 C 149.049 320.703,149.161 320.082,149.085 319.854 C 149.009 319.627,148.824 319.761,148.673 320.153 M248.834 322.000 C 248.846 322.330,249.011 322.960,249.200 323.400 L 249.544 324.200 249.566 323.400 C 249.578 322.960,249.413 322.330,249.200 322.000 C 248.855 321.467,248.815 321.467,248.834 322.000 M147.020 326.042 C 146.371 328.027,145.696 329.741,145.520 329.849 C 145.344 329.958,145.200 330.257,145.200 330.513 C 145.200 331.387,146.275 329.404,147.369 326.510 C 147.971 324.920,148.403 323.352,148.331 323.026 C 148.259 322.699,147.669 324.057,147.020 326.042 M133.124 327.268 C 132.138 329.275,129.298 332.309,127.321 333.467 C 125.350 334.622,125.198 335.139,127.109 334.185 C 129.382 333.051,134.268 327.404,133.909 326.326 C 133.837 326.112,133.484 326.535,133.124 327.268 M143.912 332.922 C 143.327 333.845,141.622 335.849,140.124 337.376 C 138.626 338.903,137.966 339.760,138.658 339.279 C 140.600 337.930,145.581 331.847,145.120 331.387 C 145.041 331.308,144.498 331.999,143.912 332.922 M123.264 335.940 C 122.077 337.049,121.890 338.437,122.848 339.030 C 123.315 339.318,123.293 338.921,122.791 337.983 C 122.364 337.186,122.911 336.398,124.635 335.324 C 125.056 335.061,125.194 334.836,124.942 334.824 C 124.691 334.811,123.935 335.313,123.264 335.940 M123.225 339.800 C 123.225 340.020,123.490 340.549,123.813 340.976 C 124.136 341.404,124.400 341.573,124.400 341.353 C 124.400 341.133,124.136 340.604,123.813 340.176 C 123.490 339.749,123.225 339.580,123.225 339.800 M135.200 341.400 C 134.210 342.159,133.157 342.784,132.860 342.790 C 132.564 342.795,131.754 343.045,131.060 343.344 C 127.092 345.056,126.765 345.108,125.829 344.171 C 125.483 343.826,125.200 343.740,125.200 343.980 C 125.200 345.128,127.145 345.334,129.491 344.434 C 130.761 343.946,132.340 343.375,133.000 343.163 C 133.660 342.952,134.920 342.157,135.800 341.396 C 137.855 339.618,137.521 339.621,135.200 341.400 " stroke="none" fill="#949494" fill-rule="evenodd"></path><path id="path3" d="M201.929 87.500 C 209.921 87.560,222.881 87.560,230.729 87.500 C 238.578 87.439,232.040 87.390,216.200 87.390 C 200.360 87.390,193.938 87.439,201.929 87.500 M193.700 120.299 C 196.285 120.368,200.515 120.368,203.100 120.299 C 205.685 120.229,203.570 120.172,198.400 120.172 C 193.230 120.172,191.115 120.229,193.700 120.299 M210.000 120.156 C 210.000 120.242,210.617 120.385,211.372 120.473 C 212.127 120.561,212.656 120.490,212.548 120.316 C 212.355 120.003,210.000 119.855,210.000 120.156 M167.290 146.676 C 167.240 157.278,167.335 166.036,167.500 166.138 C 167.773 166.307,167.767 151.589,167.489 134.200 C 167.429 130.460,167.339 136.074,167.290 146.676 M156.316 255.897 C 157.699 255.975,159.859 255.974,161.116 255.895 C 162.372 255.816,161.240 255.752,158.600 255.753 C 155.960 255.753,154.932 255.818,156.316 255.897 M230.300 255.893 C 231.235 255.977,232.765 255.977,233.700 255.893 C 234.635 255.809,233.870 255.740,232.000 255.740 C 230.130 255.740,229.365 255.809,230.300 255.893 M236.500 255.887 C 237.105 255.978,238.095 255.978,238.700 255.887 C 239.305 255.795,238.810 255.720,237.600 255.720 C 236.390 255.720,235.895 255.795,236.500 255.887 M256.117 255.897 C 257.611 255.974,259.951 255.974,261.317 255.896 C 262.682 255.818,261.460 255.755,258.600 255.755 C 255.740 255.756,254.622 255.820,256.117 255.897 M281.100 255.896 C 282.475 255.974,284.725 255.974,286.100 255.896 C 287.475 255.818,286.350 255.754,283.600 255.754 C 280.850 255.754,279.725 255.818,281.100 255.896 M258.501 292.600 C 258.505 293.480,258.587 293.793,258.683 293.295 C 258.779 292.798,258.775 292.078,258.675 291.695 C 258.575 291.313,258.496 291.720,258.501 292.600 M216.893 298.800 C 216.893 299.570,216.975 299.885,217.076 299.500 C 217.176 299.115,217.176 298.485,217.076 298.100 C 216.975 297.715,216.893 298.030,216.893 298.800 M258.109 300.400 C 258.109 301.390,258.187 301.795,258.282 301.300 C 258.378 300.805,258.378 299.995,258.282 299.500 C 258.187 299.005,258.109 299.410,258.109 300.400 " stroke="none" fill="#9c9c9c" fill-rule="evenodd"></path><path id="path4" d="M205.500 45.082 C 205.995 45.178,206.805 45.178,207.300 45.082 C 207.795 44.987,207.390 44.909,206.400 44.909 C 205.410 44.909,205.005 44.987,205.500 45.082 M210.800 46.357 C 212.010 46.976,213.630 47.868,214.400 48.338 C 215.170 48.808,216.070 49.318,216.400 49.471 C 216.730 49.623,218.080 50.405,219.400 51.207 C 223.250 53.548,223.914 53.869,223.251 53.065 C 222.949 52.699,222.516 52.400,222.289 52.400 C 222.061 52.400,221.319 51.995,220.638 51.500 C 219.957 51.005,218.680 50.242,217.800 49.804 C 216.920 49.366,216.110 48.899,216.000 48.766 C 215.621 48.307,209.567 45.200,209.084 45.216 C 208.818 45.225,209.590 45.738,210.800 46.357 M199.000 47.429 C 197.680 48.194,195.388 49.490,193.907 50.310 C 192.426 51.129,191.211 51.931,191.207 52.092 C 191.199 52.407,192.480 51.721,198.400 48.242 C 200.490 47.014,202.020 46.015,201.800 46.023 C 201.580 46.032,200.320 46.664,199.000 47.429 M187.400 54.160 C 186.960 54.445,184.710 55.766,182.400 57.097 C 180.090 58.427,177.390 59.983,176.400 60.553 C 175.410 61.124,173.835 61.989,172.900 62.475 C 171.965 62.962,171.200 63.510,171.200 63.694 C 171.200 64.050,172.134 63.614,174.400 62.201 C 175.170 61.720,176.610 60.870,177.600 60.310 C 181.929 57.864,188.517 54.016,188.716 53.817 C 189.132 53.402,188.195 53.645,187.400 54.160 M224.400 54.022 C 224.730 54.247,225.630 54.789,226.400 55.227 C 227.170 55.664,228.340 56.375,229.000 56.805 C 229.660 57.236,230.560 57.766,231.000 57.983 C 231.440 58.200,232.700 58.920,233.800 59.583 C 234.900 60.247,236.070 60.913,236.400 61.065 C 236.730 61.217,238.080 61.999,239.400 62.803 C 241.808 64.271,250.748 69.497,253.864 71.259 C 254.779 71.777,256.489 72.767,257.664 73.459 C 263.267 76.762,268.919 80.000,269.080 80.000 C 270.790 80.000,276.236 85.005,277.369 87.618 C 277.706 88.395,277.976 88.690,277.984 88.292 C 278.040 85.783,274.532 82.610,267.000 78.356 C 265.680 77.610,264.240 76.782,263.800 76.516 C 263.360 76.249,262.730 75.901,262.400 75.742 C 261.764 75.435,257.015 72.647,256.000 71.986 C 255.670 71.771,255.130 71.474,254.800 71.327 C 254.470 71.179,254.110 70.955,254.000 70.829 C 253.890 70.703,253.080 70.245,252.200 69.811 C 251.320 69.376,250.043 68.611,249.362 68.111 C 248.681 67.610,248.010 67.200,247.869 67.200 C 247.729 67.200,246.438 66.480,245.000 65.600 C 243.562 64.720,242.290 64.000,242.174 64.000 C 242.057 64.000,240.954 63.356,239.723 62.568 C 238.493 61.781,237.106 60.969,236.643 60.764 C 236.179 60.559,235.080 59.939,234.200 59.387 C 233.320 58.834,232.150 58.165,231.600 57.899 C 231.050 57.634,230.510 57.303,230.400 57.165 C 230.125 56.819,224.391 53.599,224.064 53.606 C 223.919 53.609,224.070 53.796,224.400 54.022 M169.780 64.351 C 169.571 64.544,168.320 65.294,167.000 66.018 C 165.680 66.741,163.472 68.023,162.093 68.867 C 160.714 69.710,159.409 70.400,159.193 70.400 C 158.977 70.400,158.800 70.560,158.800 70.757 C 158.800 70.953,158.350 71.226,157.800 71.364 C 157.250 71.502,156.800 71.788,156.800 72.000 C 156.800 72.409,159.723 70.879,164.215 68.117 C 164.647 67.852,166.305 66.902,167.900 66.007 C 169.495 65.112,170.800 64.294,170.800 64.190 C 170.800 63.878,170.187 63.975,169.780 64.351 M154.000 73.600 C 151.663 75.154,152.229 75.160,154.701 73.608 C 155.746 72.952,156.420 72.413,156.200 72.409 C 155.980 72.406,154.990 72.942,154.000 73.600 M146.881 77.681 C 146.156 78.129,145.638 78.571,145.731 78.664 C 145.908 78.842,148.800 77.236,148.800 76.960 C 148.800 76.646,148.181 76.878,146.881 77.681 M141.600 80.630 C 141.050 80.929,140.060 81.633,139.400 82.193 C 138.491 82.965,138.806 82.860,140.700 81.759 C 142.075 80.960,143.200 80.238,143.200 80.153 C 143.200 79.895,142.647 80.059,141.600 80.630 M136.791 84.463 C 134.268 87.554,134.421 84.813,134.419 126.800 C 134.417 168.440,134.304 166.208,136.559 169.000 C 136.914 169.440,136.664 168.747,136.002 167.459 L 134.800 165.119 134.800 127.008 C 134.800 85.319,134.694 87.264,137.108 84.704 C 137.677 84.101,138.061 83.527,137.962 83.428 C 137.863 83.330,137.336 83.795,136.791 84.463 M187.088 87.845 C 186.613 88.321,186.772 119.536,187.252 119.832 C 187.473 119.969,187.686 120.017,187.727 119.940 C 187.975 119.466,187.341 87.592,187.088 87.845 M278.192 126.800 C 278.192 147.590,278.241 156.095,278.300 145.700 C 278.359 135.305,278.359 118.295,278.300 107.900 C 278.241 97.505,278.192 106.010,278.192 126.800 M212.800 133.138 L 213.000 146.200 229.200 146.207 L 245.400 146.214 229.300 146.102 L 213.200 145.991 213.200 133.219 C 213.200 126.195,213.065 120.364,212.900 120.261 C 212.735 120.159,212.690 125.954,212.800 133.138 M167.800 127.200 C 167.637 127.465,174.063 127.600,186.776 127.600 L 206.000 127.600 206.000 146.796 L 206.000 165.992 186.900 166.102 L 167.800 166.212 187.000 166.206 L 206.200 166.200 206.311 147.400 C 206.372 137.060,206.324 128.195,206.203 127.700 L 205.985 126.800 187.016 126.800 C 174.802 126.800,167.959 126.942,167.800 127.200 M277.216 166.351 C 276.915 167.264,276.428 168.211,276.134 168.455 C 275.840 168.698,275.600 169.080,275.600 169.303 C 275.600 169.796,276.820 168.198,277.557 166.739 C 277.852 166.156,278.019 165.457,277.928 165.185 C 277.838 164.914,277.517 165.439,277.216 166.351 M137.600 169.930 C 137.600 170.392,141.085 172.837,143.200 173.858 C 143.530 174.018,144.928 174.835,146.307 175.674 C 147.686 176.513,148.932 177.200,149.076 177.200 C 149.219 177.200,149.621 177.452,149.969 177.759 C 150.915 178.598,153.667 180.066,153.884 179.849 C 153.989 179.745,153.473 179.336,152.737 178.942 C 152.002 178.547,151.095 178.039,150.722 177.812 C 150.348 177.586,147.629 175.997,144.679 174.283 C 141.728 172.568,138.928 170.806,138.457 170.367 C 137.986 169.928,137.600 169.731,137.600 169.930 M274.056 170.413 C 273.148 171.170,271.163 172.387,262.683 177.388 C 260.528 178.659,258.843 179.777,258.939 179.872 C 259.034 179.968,260.077 179.436,261.256 178.691 C 262.435 177.946,263.670 177.213,264.000 177.063 C 264.330 176.912,265.500 176.247,266.600 175.583 C 267.700 174.920,268.960 174.201,269.400 173.984 C 271.548 172.929,274.486 170.872,274.948 170.100 C 275.354 169.422,275.168 169.487,274.056 170.413 M154.591 180.385 C 154.749 180.640,155.265 181.026,155.739 181.242 C 156.212 181.458,156.960 181.853,157.400 182.121 C 160.305 183.889,163.272 185.600,163.431 185.600 C 163.535 185.600,164.740 186.278,166.110 187.106 C 171.390 190.299,175.285 192.561,175.800 192.735 C 176.515 192.976,173.852 191.188,171.844 190.080 C 170.769 189.486,169.591 188.820,169.227 188.600 C 168.864 188.380,167.224 187.409,165.583 186.443 C 163.942 185.477,161.160 183.834,159.400 182.793 C 155.034 180.209,154.235 179.809,154.591 180.385 M254.489 182.090 C 252.668 183.201,251.256 184.189,251.351 184.284 C 251.446 184.380,252.258 183.995,253.154 183.429 C 254.051 182.863,254.870 182.400,254.974 182.400 C 255.159 182.400,258.002 180.532,258.356 180.177 C 259.004 179.529,257.315 180.365,254.489 182.090 M244.422 188.000 C 241.046 189.980,238.227 191.600,238.156 191.600 C 238.033 191.600,236.881 192.276,228.293 197.391 C 226.143 198.671,224.464 199.797,224.559 199.893 C 224.708 200.041,226.839 198.829,229.823 196.897 C 230.251 196.621,230.870 196.273,231.200 196.123 C 231.530 195.974,232.928 195.165,234.307 194.326 C 235.686 193.487,236.910 192.800,237.026 192.800 C 237.143 192.800,238.189 192.192,239.351 191.449 C 240.513 190.705,241.854 189.973,242.332 189.822 C 242.809 189.670,243.200 189.378,243.200 189.173 C 243.200 188.968,243.406 188.800,243.657 188.800 C 243.908 188.800,245.254 188.080,246.647 187.200 C 248.040 186.320,249.343 185.600,249.541 185.600 C 249.740 185.600,250.126 185.330,250.400 185.000 C 251.183 184.057,250.921 184.188,244.422 188.000 M178.529 194.285 C 178.646 194.474,179.520 195.034,180.471 195.530 C 181.422 196.025,182.554 196.648,182.986 196.915 C 187.289 199.571,188.754 200.400,189.143 200.400 C 189.394 200.400,189.600 200.539,189.600 200.709 C 189.600 200.879,190.272 201.374,191.094 201.809 C 191.915 202.244,194.120 203.484,195.994 204.566 C 203.252 208.754,203.365 208.800,206.333 208.800 C 208.525 208.800,209.477 208.589,211.040 207.758 C 214.445 205.948,216.442 204.709,216.256 204.523 C 216.157 204.423,215.381 204.781,214.532 205.317 C 206.893 210.139,205.208 209.840,191.000 201.142 C 190.340 200.737,189.530 200.281,189.200 200.128 C 188.870 199.974,187.023 198.895,185.096 197.730 C 180.990 195.248,178.229 193.800,178.529 194.285 M220.089 202.090 C 218.268 203.201,216.855 204.188,216.950 204.283 C 217.084 204.417,223.247 200.786,223.967 200.148 C 224.740 199.462,222.809 200.430,220.089 202.090 M151.823 256.489 C 151.480 256.978,151.200 257.687,151.200 258.065 C 151.200 258.443,151.020 258.864,150.800 259.000 C 150.580 259.136,150.418 259.732,150.441 260.324 C 150.473 261.170,150.623 260.973,151.141 259.400 C 151.965 256.898,152.268 256.430,153.341 255.997 L 154.200 255.651 153.323 255.625 C 152.840 255.611,152.165 256.000,151.823 256.489 M164.048 256.448 C 164.751 257.151,164.858 257.612,164.673 259.148 C 164.527 260.365,164.569 260.726,164.797 260.200 C 165.596 258.355,164.913 255.600,163.656 255.600 C 163.405 255.600,163.582 255.982,164.048 256.448 M226.762 256.300 C 225.910 257.361,225.199 258.730,225.207 259.295 C 225.210 259.573,225.619 259.083,226.115 258.208 C 226.611 257.332,227.463 256.389,228.008 256.113 C 228.920 255.652,228.933 255.611,228.162 255.606 C 227.701 255.603,227.071 255.915,226.762 256.300 M239.996 256.196 C 240.309 256.572,240.399 257.345,240.242 258.296 L 239.993 259.800 240.592 258.465 C 241.210 257.086,240.871 255.600,239.937 255.600 C 239.650 255.600,239.671 255.803,239.996 256.196 M251.390 256.978 C 250.722 257.853,250.403 258.693,250.515 259.278 C 250.685 260.168,250.693 260.170,250.746 259.328 C 250.775 258.849,251.406 257.814,252.147 257.028 C 252.888 256.243,253.257 255.600,252.968 255.600 C 252.678 255.600,251.968 256.220,251.390 256.978 M263.990 255.863 C 264.216 255.975,264.413 256.907,264.428 257.933 C 264.448 259.227,264.550 259.561,264.761 259.020 C 265.160 258.001,264.718 255.888,264.080 255.760 C 263.805 255.705,263.764 255.751,263.990 255.863 M277.311 256.100 C 276.538 257.100,276.359 257.778,277.083 256.962 C 277.493 256.501,278.092 256.020,278.414 255.894 C 278.892 255.706,278.880 255.657,278.349 255.632 C 277.991 255.614,277.524 255.825,277.311 256.100 M289.200 255.959 C 290.296 256.265,290.600 260.779,289.916 266.600 C 289.665 268.731,289.681 268.821,290.057 267.400 C 291.431 262.198,290.863 255.555,289.051 255.640 C 288.299 255.675,288.317 255.712,289.200 255.959 M276.244 260.700 C 276.114 261.745,275.927 263.680,275.830 265.000 L 275.652 267.400 276.014 265.400 C 276.571 262.326,276.936 258.800,276.696 258.800 C 276.577 258.800,276.374 259.655,276.244 260.700 M224.508 260.901 C 223.341 263.361,222.800 264.783,222.800 265.387 C 222.800 265.753,222.608 266.411,222.374 266.848 C 222.140 267.286,222.018 267.853,222.103 268.108 C 222.188 268.363,222.760 267.048,223.375 265.186 C 223.989 263.324,224.666 261.470,224.878 261.066 C 225.091 260.662,225.191 260.257,225.100 260.166 C 225.009 260.076,224.743 260.406,224.508 260.901 M249.682 262.375 C 249.417 263.522,249.215 264.762,249.233 265.131 C 249.252 265.499,249.525 264.731,249.841 263.424 C 250.157 262.117,250.359 260.877,250.289 260.668 C 250.220 260.460,249.946 261.228,249.682 262.375 M263.263 263.263 C 262.774 264.828,262.453 266.187,262.550 266.283 C 262.646 266.380,263.128 265.182,263.621 263.621 C 264.114 262.060,264.435 260.701,264.334 260.601 C 264.234 260.501,263.752 261.699,263.263 263.263 M149.691 263.377 C 149.421 264.386,149.212 265.524,149.226 265.906 C 149.241 266.288,149.515 265.623,149.836 264.430 C 150.157 263.236,150.366 262.098,150.300 261.901 C 150.235 261.704,149.960 262.369,149.691 263.377 M163.636 263.489 C 163.375 264.540,162.973 265.998,162.744 266.730 C 162.514 267.461,162.421 268.154,162.536 268.269 C 162.651 268.384,162.951 267.695,163.204 266.739 C 163.457 265.783,163.858 264.324,164.096 263.498 C 164.335 262.672,164.435 261.902,164.320 261.787 C 164.205 261.671,163.897 262.437,163.636 263.489 M238.075 263.600 C 237.590 264.769,237.269 265.802,237.363 265.896 C 237.610 266.143,239.243 262.329,239.089 261.866 C 239.017 261.651,238.561 262.432,238.075 263.600 M248.190 267.700 C 248.036 268.635,247.737 269.614,247.526 269.876 C 247.315 270.138,247.200 270.858,247.271 271.476 C 247.364 272.285,247.634 271.676,248.236 269.300 C 248.696 267.485,248.937 266.000,248.771 266.000 C 248.606 266.000,248.344 266.765,248.190 267.700 M236.715 267.010 C 236.592 267.445,236.369 268.160,236.220 268.600 C 236.071 269.040,236.242 268.894,236.600 268.276 C 236.958 267.658,237.181 266.942,237.095 266.686 C 237.010 266.430,236.839 266.576,236.715 267.010 M148.635 267.243 C 148.072 268.954,146.982 274.674,147.386 273.800 C 147.853 272.789,149.209 267.075,149.025 266.892 C 148.912 266.778,148.736 266.936,148.635 267.243 M261.637 269.182 C 261.338 270.527,261.179 271.712,261.283 271.816 C 261.551 272.084,262.536 267.807,262.341 267.222 C 262.252 266.955,261.935 267.837,261.637 269.182 M274.868 270.432 C 274.611 271.548,274.400 272.887,274.400 273.407 C 274.400 273.927,274.220 274.464,274.000 274.600 C 273.780 274.736,273.617 275.332,273.638 275.924 C 273.669 276.782,273.785 276.636,274.213 275.200 C 275.021 272.487,275.754 268.821,275.533 268.599 C 275.425 268.492,275.126 269.316,274.868 270.432 M161.901 270.200 C 161.206 273.498,161.195 273.736,161.810 272.073 C 162.161 271.123,162.382 270.043,162.301 269.673 C 162.210 269.256,162.058 269.456,161.901 270.200 M221.211 270.171 C 220.985 270.765,220.812 271.645,220.827 272.126 C 220.842 272.639,221.083 272.264,221.409 271.216 C 222.020 269.255,221.867 268.445,221.211 270.171 M235.217 271.489 C 234.946 272.540,234.536 273.901,234.308 274.513 C 234.079 275.125,233.989 275.722,234.106 275.840 C 234.224 275.957,234.496 275.457,234.711 274.727 C 234.925 273.997,235.332 272.634,235.615 271.698 C 235.898 270.762,236.035 269.902,235.920 269.787 C 235.805 269.671,235.488 270.437,235.217 271.489 M289.249 270.000 C 289.216 270.330,289.089 271.050,288.967 271.600 C 288.775 272.464,288.807 272.503,289.199 271.888 C 289.448 271.497,289.575 270.777,289.481 270.288 C 289.386 269.800,289.282 269.670,289.249 270.000 M260.436 274.818 C 260.146 276.037,259.999 277.387,260.108 277.818 C 260.234 278.312,260.324 278.112,260.354 277.274 C 260.379 276.544,260.591 275.590,260.825 275.153 C 261.059 274.716,261.185 273.963,261.106 273.479 C 261.013 272.909,260.777 273.379,260.436 274.818 M220.288 273.733 C 219.810 274.949,219.924 275.973,220.439 275.087 C 220.667 274.696,220.791 274.066,220.715 273.687 C 220.588 273.060,220.551 273.064,220.288 273.733 M246.411 274.171 C 246.185 274.765,246.008 275.555,246.018 275.926 C 246.027 276.297,246.289 275.887,246.600 275.015 C 247.230 273.246,247.057 272.471,246.411 274.171 M288.317 274.400 C 288.174 275.170,287.952 276.340,287.823 277.000 C 287.644 277.921,287.734 277.828,288.210 276.600 C 288.551 275.720,288.773 274.550,288.703 274.000 C 288.595 273.146,288.538 273.204,288.317 274.400 M146.446 275.639 C 146.201 276.343,146.012 277.388,146.026 277.960 C 146.043 278.622,146.264 278.216,146.633 276.840 C 147.276 274.451,147.147 273.628,146.446 275.639 M160.453 275.838 C 160.158 276.734,160.004 277.812,160.111 278.234 C 160.240 278.737,160.323 278.582,160.354 277.780 C 160.379 277.109,160.597 276.363,160.838 276.122 C 161.078 275.882,161.211 275.353,161.133 274.947 C 161.038 274.456,160.812 274.753,160.453 275.838 M219.300 278.439 C 218.608 281.461,218.720 282.694,219.442 280.007 C 219.766 278.801,219.979 277.463,219.916 277.034 C 219.852 276.605,219.575 277.238,219.300 278.439 M233.253 277.981 C 232.973 278.914,232.829 279.762,232.932 279.866 C 233.201 280.134,234.095 277.284,233.913 276.739 C 233.830 276.489,233.533 277.048,233.253 277.981 M245.467 277.067 C 245.320 277.213,245.211 277.708,245.225 278.167 C 245.249 278.933,245.282 278.923,245.634 278.042 C 246.026 277.063,245.944 276.589,245.467 277.067 M272.899 279.190 C 272.624 280.068,272.412 281.195,272.426 281.694 C 272.441 282.192,272.715 281.623,273.036 280.430 C 273.726 277.862,273.618 276.885,272.899 279.190 M287.100 279.400 C 286.945 280.060,286.715 281.050,286.588 281.600 C 286.433 282.268,286.568 282.140,286.995 281.215 C 287.346 280.453,287.576 279.463,287.507 279.015 C 287.408 278.381,287.318 278.467,287.100 279.400 M259.418 280.618 C 259.265 281.639,259.230 282.563,259.340 282.673 C 259.450 282.783,259.665 282.039,259.818 281.018 C 259.971 279.998,260.006 279.073,259.896 278.963 C 259.786 278.853,259.571 279.598,259.418 280.618 M145.467 279.467 C 145.320 279.613,145.211 280.108,145.225 280.567 C 145.249 281.333,145.282 281.323,145.634 280.442 C 146.026 279.463,145.944 278.989,145.467 279.467 M159.400 280.000 C 159.250 280.473,159.217 280.950,159.327 281.060 C 159.437 281.170,159.650 280.873,159.800 280.400 C 159.950 279.927,159.983 279.450,159.873 279.340 C 159.763 279.230,159.550 279.527,159.400 280.000 M244.485 280.173 C 243.786 281.708,243.892 282.417,244.613 281.033 C 244.948 280.391,245.165 279.696,245.096 279.488 C 245.027 279.280,244.752 279.588,244.485 280.173 M232.229 281.829 C 232.081 282.415,232.051 282.984,232.161 283.094 C 232.271 283.204,232.481 282.815,232.629 282.229 C 232.776 281.642,232.806 281.073,232.696 280.963 C 232.586 280.853,232.376 281.242,232.229 281.829 M144.481 283.488 C 144.216 284.371,144.013 285.432,144.028 285.846 C 144.043 286.261,144.323 285.730,144.650 284.666 C 144.977 283.602,145.180 282.541,145.103 282.308 C 145.025 282.075,144.745 282.606,144.481 283.488 M158.500 283.567 C 157.793 285.858,157.913 286.956,158.643 284.873 C 158.976 283.923,159.192 282.876,159.124 282.547 C 159.056 282.217,158.775 282.676,158.500 283.567 M243.165 283.448 C 242.910 284.082,242.513 285.005,242.283 285.499 C 242.053 285.994,241.962 286.495,242.079 286.612 C 242.196 286.730,242.512 286.235,242.780 285.513 C 243.047 284.791,243.444 283.867,243.661 283.461 C 243.878 283.055,243.960 282.626,243.843 282.509 C 243.726 282.392,243.421 282.815,243.165 283.448 M271.222 285.422 C 270.748 286.891,270.439 288.173,270.537 288.271 C 270.635 288.368,271.103 287.247,271.578 285.778 C 272.052 284.309,272.361 283.027,272.263 282.929 C 272.165 282.832,271.697 283.953,271.222 285.422 M286.046 283.067 C 286.021 283.324,285.884 283.864,285.741 284.267 C 285.540 284.836,285.594 284.897,285.979 284.542 C 286.252 284.291,286.389 283.751,286.284 283.342 C 286.179 282.934,286.072 282.810,286.046 283.067 M218.022 285.200 C 217.749 286.410,217.604 288.030,217.699 288.800 C 217.853 290.047,217.879 289.999,217.936 288.360 C 217.971 287.348,218.196 285.956,218.436 285.268 C 218.676 284.580,218.792 283.788,218.695 283.509 C 218.597 283.229,218.294 283.990,218.022 285.200 M231.461 285.100 C 231.326 285.925,231.111 287.140,230.984 287.800 C 230.812 288.689,230.855 288.839,231.151 288.379 C 231.584 287.707,232.231 283.600,231.904 283.600 C 231.795 283.600,231.595 284.275,231.461 285.100 M258.592 293.300 C 258.213 303.447,258.213 302.105,258.592 307.000 C 259.003 312.305,259.155 312.502,260.859 309.922 C 262.881 306.862,265.324 302.391,265.098 302.165 C 264.992 302.059,264.609 302.563,264.247 303.286 C 263.209 305.360,261.877 307.651,260.589 309.576 L 259.400 311.351 259.143 307.576 C 259.002 305.499,258.986 299.525,259.107 294.300 C 259.228 289.075,259.233 284.800,259.118 284.800 C 259.003 284.800,258.767 288.625,258.592 293.300 M284.881 286.845 C 284.597 287.755,284.445 288.578,284.543 288.676 C 284.788 288.921,285.696 286.088,285.531 285.592 C 285.457 285.372,285.165 285.936,284.881 286.845 M143.226 288.460 C 142.991 289.417,142.620 290.753,142.400 291.428 C 142.180 292.104,142.013 293.004,142.028 293.428 C 142.043 293.853,142.316 293.300,142.633 292.200 C 142.951 291.100,143.418 289.524,143.670 288.698 C 143.923 287.872,144.022 287.089,143.891 286.958 C 143.760 286.827,143.461 287.502,143.226 288.460 M157.429 287.829 C 157.281 288.415,157.251 288.984,157.361 289.094 C 157.471 289.204,157.681 288.815,157.829 288.229 C 157.976 287.642,158.006 287.073,157.896 286.963 C 157.786 286.853,157.576 287.242,157.429 287.829 M240.594 289.451 C 240.022 290.743,239.354 292.205,239.110 292.699 C 238.865 293.194,238.758 293.691,238.871 293.804 C 238.984 293.917,239.583 292.792,240.204 291.305 C 240.824 289.817,241.507 288.371,241.722 288.090 C 241.938 287.810,242.006 287.473,241.874 287.341 C 241.742 287.209,241.166 288.158,240.594 289.451 M269.613 290.498 C 269.038 292.392,268.160 294.637,267.581 295.695 C 267.371 296.077,267.200 296.572,267.200 296.797 C 267.200 297.021,266.751 298.134,266.203 299.271 C 265.654 300.408,265.284 301.417,265.380 301.513 C 265.583 301.717,266.650 299.438,268.336 295.200 C 269.810 291.496,270.535 289.202,270.305 288.971 C 270.208 288.875,269.897 289.562,269.613 290.498 M230.043 292.709 C 229.736 294.750,229.566 296.500,229.665 296.599 C 229.950 296.883,230.892 291.073,230.739 289.983 C 230.662 289.442,230.349 290.669,230.043 292.709 M282.702 292.900 C 281.878 294.900,281.263 296.596,281.335 296.668 C 281.478 296.811,281.962 295.854,282.986 293.400 C 283.354 292.520,283.843 291.413,284.074 290.939 C 284.304 290.466,284.427 289.895,284.346 289.671 C 284.266 289.447,283.526 290.900,282.702 292.900 M156.722 290.600 C 156.586 291.260,156.366 292.250,156.233 292.800 C 156.069 293.480,156.192 293.369,156.617 292.451 C 156.961 291.708,157.181 290.718,157.106 290.251 C 156.996 289.561,156.923 289.627,156.722 290.600 M217.103 292.000 C 216.942 292.550,216.830 294.080,216.854 295.400 L 216.898 297.800 217.256 295.400 C 217.454 294.080,217.565 292.550,217.505 292.000 L 217.395 291.000 217.103 292.000 M141.277 295.738 C 141.015 296.464,140.814 297.494,140.832 298.028 C 140.849 298.563,140.917 298.820,140.983 298.600 C 141.049 298.380,141.334 297.434,141.616 296.498 C 142.229 294.465,141.957 293.857,141.277 295.738 M155.300 296.139 C 154.617 298.697,154.704 299.384,155.443 297.273 C 155.776 296.323,155.992 295.258,155.924 294.907 C 155.856 294.555,155.575 295.110,155.300 296.139 M238.115 294.900 C 237.904 295.175,236.884 297.110,235.848 299.200 C 233.448 304.044,229.992 309.020,229.522 308.311 C 229.336 308.030,229.265 305.550,229.365 302.800 C 229.495 299.233,229.451 298.430,229.213 300.000 C 229.029 301.210,228.861 303.949,228.840 306.087 C 228.791 310.829,229.055 310.860,232.046 306.465 C 234.797 302.423,240.110 292.298,238.115 294.900 M279.629 300.107 C 271.360 318.269,263.158 327.208,254.777 327.193 L 251.000 327.186 250.100 325.899 C 249.605 325.191,249.200 324.809,249.200 325.052 C 249.200 328.094,256.953 328.789,261.257 326.133 C 263.549 324.718,270.800 317.597,270.800 316.761 C 270.800 316.537,271.325 315.689,271.967 314.877 C 272.608 314.064,273.479 312.770,273.901 312.000 C 274.324 311.230,275.270 309.520,276.004 308.200 C 278.474 303.758,281.361 297.627,281.103 297.369 C 281.017 297.284,280.354 298.515,279.629 300.107 M140.273 299.753 C 140.123 300.145,140.011 300.766,140.025 301.133 C 140.042 301.575,140.181 301.474,140.437 300.834 C 140.649 300.303,140.761 299.682,140.685 299.454 C 140.609 299.227,140.424 299.361,140.273 299.753 M154.446 299.867 C 154.421 300.124,154.284 300.664,154.141 301.067 C 153.940 301.636,153.994 301.697,154.379 301.342 C 154.652 301.091,154.789 300.551,154.684 300.142 C 154.579 299.734,154.472 299.610,154.446 299.867 M216.550 304.600 C 216.551 307.020,216.616 307.958,216.696 306.685 C 216.776 305.412,216.775 303.432,216.694 302.285 C 216.614 301.138,216.549 302.180,216.550 304.600 M139.277 303.738 C 139.015 304.464,138.813 305.404,138.828 305.828 C 138.843 306.253,139.124 305.726,139.452 304.658 C 140.132 302.445,139.998 301.744,139.277 303.738 M153.500 303.400 C 153.345 304.060,153.115 305.050,152.988 305.600 C 152.833 306.268,152.968 306.140,153.395 305.215 C 153.746 304.453,153.976 303.463,153.907 303.015 C 153.808 302.381,153.718 302.467,153.500 303.400 M241.797 312.301 C 239.819 315.293,237.686 318.339,237.059 319.070 C 236.431 319.802,236.063 320.400,236.241 320.400 C 236.625 320.400,239.181 317.537,239.192 317.095 C 239.197 316.928,240.671 314.633,242.468 311.997 C 244.265 309.360,245.659 307.126,245.565 307.032 C 245.472 306.938,243.776 309.309,241.797 312.301 M246.236 309.800 C 246.343 311.560,246.601 313.630,246.808 314.400 C 247.273 316.122,246.966 311.791,246.398 308.600 C 246.095 306.900,246.070 307.080,246.236 309.800 M138.035 308.497 C 137.763 309.320,137.623 310.310,137.724 310.697 C 137.859 311.215,137.919 311.157,137.954 310.474 C 137.979 309.964,138.192 309.189,138.426 308.752 C 138.660 308.314,138.780 307.741,138.691 307.478 C 138.603 307.215,138.308 307.674,138.035 308.497 M152.454 307.667 C 152.425 308.034,152.284 308.664,152.141 309.067 C 151.941 309.633,151.995 309.696,152.375 309.346 C 152.646 309.097,152.787 308.467,152.688 307.946 C 152.590 307.426,152.484 307.300,152.454 307.667 M151.303 312.028 C 151.030 313.189,150.883 314.216,150.977 314.310 C 151.232 314.566,152.066 311.234,151.924 310.528 C 151.856 310.191,151.576 310.866,151.303 312.028 M216.800 312.310 C 216.800 313.653,216.963 314.853,217.162 314.977 C 217.496 315.183,217.288 310.424,216.946 310.033 C 216.866 309.942,216.800 310.966,216.800 312.310 M137.092 311.842 C 136.931 312.002,136.811 312.598,136.825 313.167 L 136.851 314.200 137.237 313.234 C 137.653 312.194,137.567 311.367,137.092 311.842 M136.432 315.076 C 136.414 315.558,136.220 316.064,136.000 316.200 C 135.780 316.336,135.613 317.022,135.628 317.724 C 135.653 318.889,135.707 318.832,136.250 317.066 C 136.577 316.002,136.758 314.922,136.654 314.666 C 136.549 314.410,136.449 314.594,136.432 315.076 M150.029 317.029 C 149.754 318.257,149.606 319.339,149.700 319.433 C 149.794 319.527,150.109 318.612,150.400 317.400 C 150.691 316.188,150.839 315.105,150.729 314.995 C 150.619 314.885,150.303 315.800,150.029 317.029 M217.680 317.400 C 217.670 318.280,217.919 319.630,218.236 320.400 L 218.810 321.800 218.557 320.400 C 218.417 319.630,218.167 318.280,218.001 317.400 L 217.700 315.800 217.680 317.400 M247.228 317.876 C 247.213 318.578,247.380 319.264,247.600 319.400 C 247.820 319.536,248.021 320.132,248.046 320.724 C 248.073 321.332,248.169 321.511,248.269 321.136 C 248.366 320.770,248.177 319.600,247.850 318.536 C 247.308 316.769,247.253 316.711,247.228 317.876 M134.831 321.062 C 134.597 321.908,134.403 322.904,134.402 323.276 C 134.401 323.648,134.220 324.064,134.000 324.200 C 133.780 324.336,133.605 324.752,133.612 325.124 C 133.633 326.309,134.436 324.556,135.018 322.054 C 135.614 319.488,135.475 318.746,134.831 321.062 M148.894 321.446 C 148.622 322.352,148.400 323.466,148.400 323.923 C 148.400 324.379,148.220 324.864,148.000 325.000 C 147.780 325.136,147.606 325.552,147.614 325.924 C 147.636 326.971,148.769 324.796,148.786 323.674 C 148.794 323.164,148.991 322.390,149.225 321.953 C 149.459 321.516,149.591 320.853,149.519 320.479 C 149.445 320.096,149.172 320.519,148.894 321.446 M232.978 323.973 L 230.200 327.145 226.280 327.173 C 223.511 327.192,221.985 327.018,221.080 326.580 L 219.800 325.960 220.744 326.780 C 221.568 327.495,222.229 327.600,225.904 327.600 L 230.119 327.600 232.276 325.300 C 234.388 323.048,236.201 320.800,235.906 320.800 C 235.824 320.800,234.506 322.228,232.978 323.973 M248.434 322.600 C 248.422 323.040,248.587 323.670,248.800 324.000 C 249.314 324.795,249.314 323.796,248.800 322.600 L 248.456 321.800 248.434 322.600 M218.818 323.224 C 218.808 323.786,219.064 324.596,219.387 325.024 C 220.127 326.001,220.131 325.797,219.412 323.800 C 218.934 322.475,218.832 322.376,218.818 323.224 M132.286 327.689 C 131.318 329.340,129.753 331.038,127.600 332.769 C 127.050 333.211,126.816 333.579,127.081 333.587 C 128.166 333.617,134.075 326.741,133.477 326.144 C 133.378 326.045,132.842 326.740,132.286 327.689 M147.129 327.400 C 146.998 327.840,146.758 328.560,146.596 329.000 C 146.344 329.686,146.398 329.670,146.979 328.893 C 147.351 328.393,147.591 327.673,147.512 327.293 C 147.387 326.692,147.336 326.706,147.129 327.400 M144.876 332.373 C 143.526 335.423,136.220 341.918,132.438 343.432 C 131.519 343.799,130.858 344.191,130.969 344.302 C 131.080 344.414,131.790 344.211,132.546 343.852 C 133.302 343.494,134.104 343.200,134.327 343.200 C 134.551 343.200,134.793 343.054,134.867 342.875 C 134.940 342.696,136.067 341.767,137.371 340.810 C 141.257 337.958,145.899 332.696,145.523 331.568 C 145.454 331.362,145.163 331.725,144.876 332.373 M124.505 334.396 C 122.855 335.285,122.000 335.996,122.000 336.478 C 122.000 336.686,122.289 336.568,122.642 336.215 C 122.995 335.862,123.985 335.216,124.842 334.779 C 125.699 334.341,126.400 333.897,126.400 333.792 C 126.400 333.486,125.893 333.648,124.505 334.396 M122.015 338.131 C 121.989 338.707,124.827 344.370,125.456 344.999 C 126.221 345.764,128.306 345.749,129.600 344.969 L 130.600 344.367 129.600 344.669 C 126.504 345.605,125.951 345.287,123.915 341.400 C 122.878 339.420,122.023 337.949,122.015 338.131 " stroke="none" fill="#b0b0b0" fill-rule="evenodd"></path></g></svg>